<?xml version="1.0" encoding="UTF-8"?> <svg xmlns="http://www.w3.org/2000/svg" id="Layer_1" viewBox="0 0 735.55 131.02"><defs><style>.cls-1{fill:#010101;}</style></defs><path class="cls-1" d="m32.16,19.64v91.78c0,13.46,2.44,15.36,15,15.36h13.55c35.32-.1,35.32-34.64,35.32-34.64v38.88H0s14.7,0,15-19.6V19.64C14.7.04,0,.04,0,.04h47.15s-14.84,0-15,19.6Z"></path><path class="cls-1" d="m206.43,115.49c6.76,15.54,12.83,15.54,12.83,15.54h-43.54s12.97,0,13.1-10.57c.03-2.17-.72-4.97-2.17-8.67l-11.38-30.35h-44.62l-7.59,19.6c-2.53,6.41-3.54,11.39-3.7,15.18-.62,14.82,16.08,14.82,16.08,14.82h-35.14s6.18,0,14.54-19.78L158.22,0l48.21,115.48Zm-53.24-92.34l-21.19,54.58h41.92l-20.72-54.58Z"></path><path class="cls-1" d="m303.96.04s-9.21,9.21-14.81,20.14l-29,57.54v33.69c.13,19.6,15,19.6,15,19.6h-47.24s15.01,0,15-19.6v-27.91L205.41,14.31C200.35,5.19,194.66.04,194.66.04h42.19s-12.57-.04-13.01,11.02c-.07,1.71.54,3.79,1.9,6.41l30.8,58.99,23.58-46.97c3.43-6.96,4.88-12.11,5.06-15.9C285.81,0,268.82.04,268.82.04h35.14Z"></path><path class="cls-1" d="m425.75,64.08c0,40.29-24.39,66.94-66.94,66.94h-48.87s15.12,0,15-19.6V19.64C325.32.04,309.94.04,309.94.04h50.5c44.08,0,65.31,22.76,65.31,64.05Zm-83.65-44.81v92.5c0,12.92,2.44,15.9,13.91,15.9,40.29,0,51.22-22.58,51.22-62.87s-13.1-61.43-51.4-61.43c-11.29,0-13.73,3.16-13.73,15.9Z"></path><path class="cls-1" d="m519.67,131.02h-96.02s15.08,0,15-19.6V19.64C438.72,0,423.65.04,423.65.04l96.03-.04v33.43s0-28.79-35.24-29.15h-13.64c-12.56,0-15,1.9-15,15.36v43.63h12.28c21.95.09,21.96-24.29,21.96-24.29v52.48s0-24.26-21.96-24.48h-12.28v44.44c0,13.46,2.44,15.36,15,15.36h13.55c35.32-.86,35.32-32.75,35.32-32.75v36.99Z"></path><path class="cls-1" d="m625.35,131.02h-96.02s15.08,0,15-19.6V19.64C544.74.03,529.32.04,529.32.04l96.03-.04v33.43s0-28.92-35.24-29.15h-13.64c-12.56,0-15,1.9-15,15.36v43.63h12.28c21.95.35,21.96-24.29,21.96-24.29v52.48s0-24.52-21.96-24.48h-12.28v44.44c0,13.46,2.44,15.36,15,15.36h13.55c35.32-.61,35.32-32.75,35.32-32.75v36.99Z"></path><path class="cls-1" d="m659.04,126.78h39.02c35.36-.6,35.6-32.87,35.6-32.87l-.28,37.12h-91.78L718.75,4.28h-38.84c-38.3.36-38.13,28.77-38.13,28.77.47.35,0-33.05,0-33.05l93.78.04-76.51,126.74Z"></path></svg> 