<?xml version="1.0" encoding="UTF-8" standalone="no"?>
<!-- Created with Inkscape (http://www.inkscape.org/) -->

<svg
   xmlns:dc="http://purl.org/dc/elements/1.1/"
   xmlns:cc="http://creativecommons.org/ns#"
   xmlns:rdf="http://www.w3.org/1999/02/22-rdf-syntax-ns#"
   xmlns:svg="http://www.w3.org/2000/svg"
   xmlns="http://www.w3.org/2000/svg"
   xmlns:sodipodi="http://sodipodi.sourceforge.net/DTD/sodipodi-0.dtd"
   xmlns:inkscape="http://www.inkscape.org/namespaces/inkscape"
   width="5.4717383mm"
   height="5.1164227mm"
   viewBox="0 0 5.4717383 5.1164227"
   version="1.1"
   id="svg633"
   inkscape:version="0.92.4 (unknown)"
   sodipodi:docname="buy.svg">
  <defs
     id="defs627" />
  <sodipodi:namedview
     id="base"
     pagecolor="#ffffff"
     bordercolor="#666666"
     borderopacity="1.0"
     inkscape:pageopacity="0.0"
     inkscape:pageshadow="2"
     inkscape:zoom="0.70683594"
     inkscape:cx="204.49337"
     inkscape:cy="-112.2433"
     inkscape:document-units="mm"
     inkscape:current-layer="layer1"
     showgrid="false"
     inkscape:window-width="1366"
     inkscape:window-height="704"
     inkscape:window-x="0"
     inkscape:window-y="27"
     inkscape:window-maximized="1" />
  <metadata
     id="metadata630">
    <rdf:RDF>
      <cc:Work
         rdf:about="">
        <dc:format>image/svg+xml</dc:format>
        <dc:type
           rdf:resource="http://purl.org/dc/dcmitype/StillImage" />
        <dc:title></dc:title>
      </cc:Work>
    </rdf:RDF>
  </metadata>
  <g
     inkscape:label="Layer 1"
     inkscape:groupmode="layer"
     id="layer1"
     transform="translate(0.1156241,-114.0192)">
    <g
       id="g5724"
       transform="matrix(0.28424569,0,0,0.28424569,-0.1156241,113.84155)"
       style="display:inline;fill:#1a1a1a;fill-opacity:1">
      <g
         id="g5692"
         style="fill:#1a1a1a;fill-opacity:1">
        <g
           id="g5690"
           style="fill:#1a1a1a;fill-opacity:1">
          <g
             id="g5688"
             style="fill:#1a1a1a;fill-opacity:1">
            <path
               id="path5682"
               d="M 19.006,2.97 C 18.815,2.751 18.54,2.625 18.25,2.625 H 4.431 L 4.236,1.461 C 4.156,0.979 3.739,0.625 3.25,0.625 H 1 c -0.553,0 -1,0.447 -1,1 0,0.553 0.447,1 1,1 h 1.403 l 1.86,11.164 c 0.008,0.045 0.031,0.082 0.045,0.124 0.016,0.053 0.029,0.103 0.054,0.151 0.032,0.066 0.075,0.122 0.12,0.179 0.031,0.039 0.059,0.078 0.095,0.112 0.058,0.054 0.125,0.092 0.193,0.13 0.038,0.021 0.071,0.049 0.112,0.065 0.116,0.047 0.238,0.075 0.367,0.075 0.001,0 11.001,0 11.001,0 0.553,0 1,-0.447 1,-1 0,-0.553 -0.447,-1 -1,-1 H 6.097 l -0.166,-1 H 17.25 c 0.498,0 0.92,-0.366 0.99,-0.858 l 1,-7 C 19.281,3.479 19.195,3.188 19.006,2.97 Z m -1.909,1.655 -0.285,2 H 13.25 v -2 z m -4.847,0 v 2 h -3 v -2 z m 0,3 v 2 h -3 v -2 z m -4,-3 v 2 h -3 c -0.053,0 -0.101,0.015 -0.148,0.03 L 4.764,4.625 Z m -2.986,3 H 8.25 v 2 H 5.597 Z m 7.986,2 v -2 h 3.418 l -0.285,2 z"
               style="fill:#1a1a1a;fill-opacity:1"
               inkscape:connector-curvature="0" />
            <circle
               id="circle5684"
               r="1.5"
               cy="17.125"
               cx="6.75"
               style="fill:#1a1a1a;fill-opacity:1" />
            <circle
               id="circle5686"
               r="1.5"
               cy="17.125"
               cx="15.75"
               style="fill:#1a1a1a;fill-opacity:1" />
          </g>
        </g>
      </g>
      <g
         id="g5694"
         style="fill:#1a1a1a;fill-opacity:1" />
      <g
         id="g5696"
         style="fill:#1a1a1a;fill-opacity:1" />
      <g
         id="g5698"
         style="fill:#1a1a1a;fill-opacity:1" />
      <g
         id="g5700"
         style="fill:#1a1a1a;fill-opacity:1" />
      <g
         id="g5702"
         style="fill:#1a1a1a;fill-opacity:1" />
      <g
         id="g5704"
         style="fill:#1a1a1a;fill-opacity:1" />
      <g
         id="g5706"
         style="fill:#1a1a1a;fill-opacity:1" />
      <g
         id="g5708"
         style="fill:#1a1a1a;fill-opacity:1" />
      <g
         id="g5710"
         style="fill:#1a1a1a;fill-opacity:1" />
      <g
         id="g5712"
         style="fill:#1a1a1a;fill-opacity:1" />
      <g
         id="g5714"
         style="fill:#1a1a1a;fill-opacity:1" />
      <g
         id="g5716"
         style="fill:#1a1a1a;fill-opacity:1" />
      <g
         id="g5718"
         style="fill:#1a1a1a;fill-opacity:1" />
      <g
         id="g5720"
         style="fill:#1a1a1a;fill-opacity:1" />
      <g
         id="g5722"
         style="fill:#1a1a1a;fill-opacity:1" />
    </g>
  </g>
</svg>
