<?xml version="1.0" encoding="UTF-8" standalone="no"?>
<!-- Created with Inkscape (http://www.inkscape.org/) -->

<svg
   width="146.00002"
   height="42.000008"
   viewBox="0 0 38.62917 11.112502"
   version="1.1"
   id="svg1696"
   inkscape:version="1.2.2 (b0a8486541, 2022-12-01)"
   sodipodi:docname="i0.svg"
   xmlns:inkscape="http://www.inkscape.org/namespaces/inkscape"
   xmlns:sodipodi="http://sodipodi.sourceforge.net/DTD/sodipodi-0.dtd"
   xmlns="http://www.w3.org/2000/svg"
   xmlns:svg="http://www.w3.org/2000/svg"
   xmlns:rdf="http://www.w3.org/1999/02/22-rdf-syntax-ns#"
   xmlns:cc="http://creativecommons.org/ns#"
   xmlns:dc="http://purl.org/dc/elements/1.1/">
  <defs
     id="defs1690" />
  <sodipodi:namedview
     id="base"
     pagecolor="#ffffff"
     bordercolor="#5a7264"
     borderopacity="1.0"
     inkscape:pageopacity="0.0"
     inkscape:pageshadow="2"
     inkscape:zoom="3.4275855"
     inkscape:cx="83.732412"
     inkscape:cy="6.710263"
     inkscape:document-units="px"
     inkscape:current-layer="layer1"
     showgrid="false"
     inkscape:window-width="1366"
     inkscape:window-height="699"
     inkscape:window-x="0"
     inkscape:window-y="32"
     inkscape:window-maximized="1"
     units="px"
     showguides="true"
     inkscape:guide-bbox="true"
     inkscape:showpageshadow="0"
     inkscape:pagecheckerboard="0"
     inkscape:deskcolor="#d3cfd2" />
  <metadata
     id="metadata1693">
    <rdf:RDF>
      <cc:Work
         rdf:about="">
        <dc:format>image/svg+xml</dc:format>
        <dc:type
           rdf:resource="http://purl.org/dc/dcmitype/StillImage" />
        <dc:title />
      </cc:Work>
    </rdf:RDF>
  </metadata>
  <g
     inkscape:label="Layer 1"
     inkscape:groupmode="layer"
     id="layer1"
     transform="translate(0,-252.8199)">
    <g
       id="g1847"
       transform="matrix(0.02614938,0,0,0.02455505,8.5511123,259.47237)"
       style="display:inline;fill:#acbaba;fill-opacity:1">
      <g
         id="g1791"
         style="fill:#acbaba;fill-opacity:1"
         transform="matrix(0.72561413,0,0,0.72561413,-84.174411,-37.41665)">
        <path
           id="path1789"
           d="m 302.93,149.794 c 5.561,-6.116 5.024,-15.49 -1.199,-20.932 L 164.63,8.898 C 158.407,3.456 148.43,3.57 142.338,9.155 L 4.771,135.258 c -6.092,5.585 -6.391,14.947 -0.662,20.902 l 3.449,3.592 c 5.722,5.955 14.971,6.665 20.645,1.581 l 10.281,-9.207 v 134.792 c 0,8.27 6.701,14.965 14.965,14.965 h 53.624 c 8.264,0 14.965,-6.695 14.965,-14.965 v -94.3 h 68.398 v 94.3 c -0.119,8.264 5.794,14.959 14.058,14.959 h 56.828 c 8.264,0 14.965,-6.695 14.965,-14.965 V 154.024 c 0,0 2.84,2.488 6.343,5.567 3.497,3.073 10.842,0.609 16.403,-5.513 z"
           style="fill:#acbaba;fill-opacity:1"
           inkscape:connector-curvature="0" />
      </g>
      <g
         id="g1793"
         style="fill:#acbaba;fill-opacity:1" />
      <g
         id="g1795"
         style="fill:#acbaba;fill-opacity:1" />
      <g
         id="g1797"
         style="fill:#acbaba;fill-opacity:1" />
      <g
         id="g1799"
         style="fill:#acbaba;fill-opacity:1" />
      <g
         id="g1801"
         style="fill:#acbaba;fill-opacity:1" />
      <g
         id="g1803"
         style="fill:#acbaba;fill-opacity:1" />
      <g
         id="g1805"
         style="fill:#acbaba;fill-opacity:1" />
      <g
         id="g1807"
         style="fill:#acbaba;fill-opacity:1" />
      <g
         id="g1809"
         style="fill:#acbaba;fill-opacity:1" />
      <g
         id="g1811"
         style="fill:#acbaba;fill-opacity:1" />
      <g
         id="g1813"
         style="fill:#acbaba;fill-opacity:1" />
      <g
         id="g1815"
         style="fill:#acbaba;fill-opacity:1" />
      <g
         id="g1817"
         style="fill:#acbaba;fill-opacity:1" />
      <g
         id="g1819"
         style="fill:#acbaba;fill-opacity:1" />
      <g
         id="g1821"
         style="fill:#acbaba;fill-opacity:1" />
    </g>
    <g
       id="g2077"
       transform="matrix(0.0469422,0,0,0.04724702,0,258.35725)"
       style="display:inline;fill:#acbaba;fill-opacity:1">
      <g
         id="g2019"
         style="fill:#acbaba;fill-opacity:1">
        <path
           id="path2013"
           d="M 112,6 H 12 C 5.4,6 0,11.4 0,18 0,24.6 5.4,30 12,30 h 100 c 6.6,0 12,-5.4 12,-12 0,-6.6 -5.4,-12 -12,-12 z"
           inkscape:connector-curvature="0"
           style="fill:#acbaba;fill-opacity:1" />
        <path
           id="path2015"
           d="M 112,50 H 12 C 5.4,50 0,55.4 0,62 0,68.6 5.4,74 12,74 h 100 c 6.6,0 12,-5.4 12,-12 0,-6.6 -5.4,-12 -12,-12 z"
           inkscape:connector-curvature="0"
           style="fill:#acbaba;fill-opacity:1" />
        <path
           id="path2017"
           d="M 112,94 H 12 c -6.6,0 -12,5.4 -12,12 0,6.6 5.4,12 12,12 h 100 c 6.6,0 12,-5.4 12,-12 0,-6.6 -5.4,-12 -12,-12 z"
           inkscape:connector-curvature="0"
           style="fill:#acbaba;fill-opacity:1" />
      </g>
      <g
         id="g2021"
         style="fill:#acbaba;fill-opacity:1" />
      <g
         id="g2023"
         style="fill:#acbaba;fill-opacity:1" />
      <g
         id="g2025"
         style="fill:#acbaba;fill-opacity:1" />
      <g
         id="g2027"
         style="fill:#acbaba;fill-opacity:1" />
      <g
         id="g2029"
         style="fill:#acbaba;fill-opacity:1" />
      <g
         id="g2031"
         style="fill:#acbaba;fill-opacity:1" />
      <g
         id="g2033"
         style="fill:#acbaba;fill-opacity:1" />
      <g
         id="g2035"
         style="fill:#acbaba;fill-opacity:1" />
      <g
         id="g2037"
         style="fill:#acbaba;fill-opacity:1" />
      <g
         id="g2039"
         style="fill:#acbaba;fill-opacity:1" />
      <g
         id="g2041"
         style="fill:#acbaba;fill-opacity:1" />
      <g
         id="g2043"
         style="fill:#acbaba;fill-opacity:1" />
      <g
         id="g2045"
         style="fill:#acbaba;fill-opacity:1" />
      <g
         id="g2047"
         style="fill:#acbaba;fill-opacity:1" />
      <g
         id="g2049"
         style="fill:#acbaba;fill-opacity:1" />
    </g>
    <g
       id="g2272"
       transform="matrix(0.15549087,0,0,0.15903004,12.210298,258.46918)"
       style="display:inline;fill:#acbaba;fill-opacity:1">
      <g
         id="g2216"
         style="fill:#acbaba;fill-opacity:1">
        <path
           id="path2214"
           d="M 40.584601,34.353395 H 3.1493902 l 1.0329019,-5.434898 c 0.00748,-1.594262 1.1264619,-1.632621 2.461563,-2.166849 l 6.2404489,-2.498986 c 0.09543,-0.03742 0.188056,-0.07672 0.281616,-0.118821 l 0.0065,-0.02433 0.01778,-0.06268 0.01778,-0.06268 c 1.182597,-0.534228 2.202401,-1.272416 2.512084,-1.78606 0.208639,-0.347107 0.436925,-0.478091 0.605333,-0.32746 0.03368,0.0019 0.06081,0.01965 0.08046,0.04491 0.175893,-0.532356 0.351785,-1.067519 0.526742,-1.599875 0.05801,-0.204896 0.180571,-0.102916 0.243256,0.05333 l -0.136597,-0.542648 -0.07766,-0.976766 c -0.121628,-0.130048 -0.21893,-0.237642 -0.284422,-0.310619 -0.409793,-0.464993 -0.437861,-1.693435 -0.642757,-1.992827 -0.204896,-0.299392 -0.609075,-0.364884 -1.018868,-1.757992 -0.408857,-1.394979 -0.903789,-3.38687 -0.378918,-3.419616 0.04959,-0.0028 0.100109,0.0084 0.15531,0.029 -0.03462,-0.194605 -0.07485,-0.197412 -0.118822,-0.469671 C 14.59458,10.406724 14.293317,9.5515857 14.264313,9.0444907 14.208177,7.915222 14.4926,4.730441 15.13255,3.6675999 c 0.640886,-1.0628412 1.643848,-1.9610168 3.073445,-2.2809918 1.254639,-0.2816155 4.96242,-0.52206459 6.139404,0 0.394823,0.1740215 0.877592,0.4285046 1.361297,0.7372525 0.806487,0.5127085 1.617652,1.1694994 2.019024,1.8328395 0.643693,1.0619056 0.829877,3.9566507 0.770934,5.0877906 -0.04397,0.8570092 -0.239513,2.0180883 -0.331202,2.5317323 0.149696,-0.134726 0.294714,-0.216123 0.425698,-0.209574 0.523936,0.03275 0.02526,2.024637 -0.381725,3.419616 -0.408857,1.393108 -0.813971,1.4586 -1.017932,1.757992 -0.204896,0.299392 -0.2339,1.527834 -0.640886,1.992827 -0.06268,0.06923 -0.156245,0.171215 -0.270388,0.292843 l -0.07017,1.195696 c -0.04023,0.661469 0.135662,0.05052 0.199283,0.288165 0.0421,0.128177 0.32091,0.994542 0.487447,1.452986 0.06923,0.185248 0.03555,0.281615 0.206768,0.193669 l 0.0075,-0.0065 0.0056,-0.0019 0.0084,-0.0028 9.36e-4,-9.36e-4 0.0037,-0.0019 0.0094,-0.0047 c 0.141276,-0.04865 0.309684,0.06268 0.477156,0.314361 v 0.0019 l 0.01403,0.01591 0.0028,0.0065 0.01684,0.02526 c 0.01965,0.03087 0.04023,0.06175 0.05894,0.09543 l 0.0047,0.0084 0.01497,0.01778 c 0.360206,0.490254 1.337907,1.189147 2.446593,1.6925 v 0.0037 c 0.104787,0.04678 0.214252,0.09356 0.321846,0.135662 l 6.24045,2.498987 c 1.336036,0.534227 2.454077,0.572587 2.461562,2.166848 z"
           inkscape:connector-curvature="0"
           style="fill:#acbaba;fill-opacity:1;stroke-width:0.93559957" />
      </g>
      <g
         id="g2218"
         style="fill:#acbaba;fill-opacity:1" />
      <g
         id="g2220"
         style="fill:#acbaba;fill-opacity:1" />
      <g
         id="g2222"
         style="fill:#acbaba;fill-opacity:1" />
      <g
         id="g2224"
         style="fill:#acbaba;fill-opacity:1" />
      <g
         id="g2226"
         style="fill:#acbaba;fill-opacity:1" />
      <g
         id="g2228"
         style="fill:#acbaba;fill-opacity:1" />
      <g
         id="g2230"
         style="fill:#acbaba;fill-opacity:1" />
      <g
         id="g2232"
         style="fill:#acbaba;fill-opacity:1" />
      <g
         id="g2234"
         style="fill:#acbaba;fill-opacity:1" />
      <g
         id="g2236"
         style="fill:#acbaba;fill-opacity:1" />
      <g
         id="g2238"
         style="fill:#acbaba;fill-opacity:1" />
      <g
         id="g2240"
         style="fill:#acbaba;fill-opacity:1" />
      <g
         id="g2242"
         style="fill:#acbaba;fill-opacity:1" />
      <g
         id="g2244"
         style="fill:#acbaba;fill-opacity:1" />
      <g
         id="g2246"
         style="fill:#acbaba;fill-opacity:1" />
    </g>
    <g
       id="g1918"
       transform="matrix(0.30238047,0,0,0.29398148,26.458333,258.45699)"
       style="display:inline;fill:#acbaba;fill-opacity:1">
      <g
         id="g1858"
         style="fill:#acbaba;fill-opacity:1">
        <g
           id="Layer_1_107_"
           style="fill:#acbaba;fill-opacity:1">
          <g
             id="g1855"
             style="fill:#acbaba;fill-opacity:1">
            <path
               id="path1849"
               d="M 19.006,2.97 C 18.815,2.751 18.54,2.625 18.25,2.625 H 4.431 L 4.236,1.461 C 4.156,0.979 3.739,0.625 3.25,0.625 H 1 c -0.553,0 -1,0.447 -1,1 0,0.553 0.447,1 1,1 h 1.403 l 1.86,11.164 c 0.008,0.045 0.031,0.082 0.045,0.124 0.016,0.053 0.029,0.103 0.054,0.151 0.032,0.066 0.075,0.122 0.12,0.179 0.031,0.039 0.059,0.078 0.095,0.112 0.058,0.054 0.125,0.092 0.193,0.13 0.038,0.021 0.071,0.049 0.112,0.065 0.116,0.047 0.238,0.075 0.367,0.075 0.001,0 11.001,0 11.001,0 0.553,0 1,-0.447 1,-1 0,-0.553 -0.447,-1 -1,-1 H 6.097 l -0.166,-1 H 17.25 c 0.498,0 0.92,-0.366 0.99,-0.858 l 1,-7 C 19.281,3.479 19.195,3.188 19.006,2.97 Z m -1.909,1.655 -0.285,2 H 13.25 v -2 z m -4.847,0 v 2 h -3 v -2 z m 0,3 v 2 h -3 v -2 z m -4,-3 v 2 h -3 c -0.053,0 -0.101,0.015 -0.148,0.03 L 4.764,4.625 Z m -2.986,3 H 8.25 v 2 H 5.597 Z m 7.986,2 v -2 h 3.418 l -0.285,2 z"
               style="fill:#acbaba;fill-opacity:1"
               inkscape:connector-curvature="0" />
            <circle
               id="circle1851"
               r="1.5"
               cy="17.125"
               cx="6.75"
               style="fill:#acbaba;fill-opacity:1" />
            <circle
               id="circle1853"
               r="1.5"
               cy="17.125"
               cx="15.75"
               style="fill:#acbaba;fill-opacity:1" />
          </g>
        </g>
      </g>
      <g
         id="g1860"
         style="fill:#acbaba;fill-opacity:1" />
      <g
         id="g1862"
         style="fill:#acbaba;fill-opacity:1" />
      <g
         id="g1864"
         style="fill:#acbaba;fill-opacity:1" />
      <g
         id="g1866"
         style="fill:#acbaba;fill-opacity:1" />
      <g
         id="g1868"
         style="fill:#acbaba;fill-opacity:1" />
      <g
         id="g1870"
         style="fill:#acbaba;fill-opacity:1" />
      <g
         id="g1872"
         style="fill:#acbaba;fill-opacity:1" />
      <g
         id="g1874"
         style="fill:#acbaba;fill-opacity:1" />
      <g
         id="g1876"
         style="fill:#acbaba;fill-opacity:1" />
      <g
         id="g1878"
         style="fill:#acbaba;fill-opacity:1" />
      <g
         id="g1880"
         style="fill:#acbaba;fill-opacity:1" />
      <g
         id="g1882"
         style="fill:#acbaba;fill-opacity:1" />
      <g
         id="g1884"
         style="fill:#acbaba;fill-opacity:1" />
      <g
         id="g1886"
         style="fill:#acbaba;fill-opacity:1" />
      <g
         id="g1888"
         style="fill:#acbaba;fill-opacity:1" />
    </g>
    <g
       id="g2332"
       transform="matrix(0.01124047,0,0,0.01230268,19.05,257.52194)"
       style="display:inline;fill:#acbaba;fill-opacity:1">
      <g
         id="g2276"
         style="fill:#acbaba;fill-opacity:1">
        <path
           id="path2274"
           d="M 21.474,377.522 V 117.138 c 0,-14.469 11.729,-26.199 26.199,-26.199 h 260.25 c 14.469,0 26.198,11.73 26.198,26.199 v 260.385 c 0,4.823 -3.909,8.733 -8.733,8.733 H 30.207 c -4.824,0 -8.733,-3.91 -8.733,-8.734 z m 210.16,89.202 c 0,30.01 -24.329,54.338 -54.338,54.338 -30.009,0 -54.338,-24.328 -54.338,-54.338 0,-30.011 24.329,-54.338 54.338,-54.338 30.009,0 54.338,24.327 54.338,54.338 z m -27.17,0 c 0,-15.005 -12.164,-27.169 -27.169,-27.169 -15.005,0 -27.17,12.164 -27.17,27.169 0,15.005 12.165,27.17 27.17,27.17 15.005,0 27.169,-12.165 27.169,-27.17 z M 130.495,412.385 H 8.733 C 3.91,412.385 0,416.295 0,421.118 v 26.495 c 0,4.823 3.91,8.733 8.733,8.733 h 97.598 c 2.548,-17.484 11.373,-32.928 24.164,-43.961 z m 385.443,54.339 c 0,30.01 -24.329,54.338 -54.338,54.338 -30.01,0 -54.338,-24.328 -54.338,-54.338 0,-30.011 24.328,-54.338 54.338,-54.338 30.009,-0.001 54.338,24.327 54.338,54.338 z m -27.168,0 c 0,-15.005 -12.165,-27.169 -27.17,-27.169 -15.006,0 -27.169,12.164 -27.169,27.169 0,15.005 12.164,27.17 27.169,27.17 15.005,0 27.17,-12.165 27.17,-27.17 z M 612,421.118 v 26.495 c 0,4.823 -3.91,8.733 -8.733,8.733 h -70.704 c -5.057,-34.683 -34.906,-61.427 -70.961,-61.427 -36.062,0 -65.912,26.745 -70.969,61.427 H 248.261 c -2.549,-17.483 -11.373,-32.928 -24.164,-43.961 H 359.091 V 162.594 c 0,-9.646 7.82,-17.466 17.466,-17.466 h 82.445 c 23.214,0 44.911,11.531 57.9,30.77 l 53.15,78.721 c 7.796,11.547 11.962,25.161 11.962,39.094 v 118.672 h 21.253 c 4.823,0 8.733,3.91 8.733,8.733 z M 523.408,256.635 480.907,196.242 c -1.636,-2.324 -4.3,-3.707 -7.142,-3.707 H 407.47 c -4.822,0 -8.733,3.91 -8.733,8.733 v 60.393 c 0,4.824 3.91,8.733 8.733,8.733 h 108.798 c 7.074,0 11.212,-7.973 7.14,-13.759 z"
           inkscape:connector-curvature="0"
           style="fill:#acbaba;fill-opacity:1" />
      </g>
      <g
         id="g2278"
         style="fill:#acbaba;fill-opacity:1" />
      <g
         id="g2280"
         style="fill:#acbaba;fill-opacity:1" />
      <g
         id="g2282"
         style="fill:#acbaba;fill-opacity:1" />
      <g
         id="g2284"
         style="fill:#acbaba;fill-opacity:1" />
      <g
         id="g2286"
         style="fill:#acbaba;fill-opacity:1" />
      <g
         id="g2288"
         style="fill:#acbaba;fill-opacity:1" />
      <g
         id="g2290"
         style="fill:#acbaba;fill-opacity:1" />
      <g
         id="g2292"
         style="fill:#acbaba;fill-opacity:1" />
      <g
         id="g2294"
         style="fill:#acbaba;fill-opacity:1" />
      <g
         id="g2296"
         style="fill:#acbaba;fill-opacity:1" />
      <g
         id="g2298"
         style="fill:#acbaba;fill-opacity:1" />
      <g
         id="g2300"
         style="fill:#acbaba;fill-opacity:1" />
      <g
         id="g2302"
         style="fill:#acbaba;fill-opacity:1" />
      <g
         id="g2304"
         style="fill:#acbaba;fill-opacity:1" />
      <g
         id="g2306"
         style="fill:#acbaba;fill-opacity:1" />
    </g>
    <path
       id="path1920"
       d="m 3.433742,295.34117 c 0.230248,-0.31443 0.367979,-0.70065 0.367979,-1.11935 0,-1.04809 -0.85276,-1.90084 -1.900869,-1.90084 C 0.85276,292.32098 0,293.17373 0,294.22182 c 0,1.04811 0.85276,1.90086 1.900862,1.90086 0.41868,0 0.804939,-0.13773 1.11937,-0.36798 L 4.265531,297 l 0.41352,-0.41353 c 0,-1e-5 -1.245309,-1.2453 -1.245309,-1.2453 z m -1.53288,0.19664 c -0.72567,0 -1.315982,-0.59031 -1.315982,-1.31599 0,-0.72567 0.590312,-1.31597 1.315982,-1.31597 0.72567,0 1.31598,0.5903 1.31598,1.31597 0,0.72568 -0.59031,1.31599 -1.31598,1.31599 z"
       inkscape:connector-curvature="0"
       style="display:inline;fill:#acbaba;fill-opacity:1;stroke:none;stroke-width:0.26458332;stroke-miterlimit:4;stroke-dasharray:none;stroke-opacity:1" />
    <g
       style="display:inline;fill:#ff442a;fill-opacity:1"
       transform="matrix(0.02614938,0,0,0.02455505,8.5511123,253.65154)"
       id="g1949">
      <g
         transform="matrix(0.72561413,0,0,0.72561413,-84.174411,-37.41665)"
         style="fill:#ff442a;fill-opacity:1"
         id="g1917">
        <path
           inkscape:connector-curvature="0"
           style="fill:#ff442a;fill-opacity:1"
           d="m 302.93,149.794 c 5.561,-6.116 5.024,-15.49 -1.199,-20.932 L 164.63,8.898 C 158.407,3.456 148.43,3.57 142.338,9.155 L 4.771,135.258 c -6.092,5.585 -6.391,14.947 -0.662,20.902 l 3.449,3.592 c 5.722,5.955 14.971,6.665 20.645,1.581 l 10.281,-9.207 v 134.792 c 0,8.27 6.701,14.965 14.965,14.965 h 53.624 c 8.264,0 14.965,-6.695 14.965,-14.965 v -94.3 h 68.398 v 94.3 c -0.119,8.264 5.794,14.959 14.058,14.959 h 56.828 c 8.264,0 14.965,-6.695 14.965,-14.965 V 154.024 c 0,0 2.84,2.488 6.343,5.567 3.497,3.073 10.842,0.609 16.403,-5.513 z"
           id="path1915" />
      </g>
      <g
         style="fill:#ff442a;fill-opacity:1"
         id="g1919" />
      <g
         style="fill:#ff442a;fill-opacity:1"
         id="g1921" />
      <g
         style="fill:#ff442a;fill-opacity:1"
         id="g1923" />
      <g
         style="fill:#ff442a;fill-opacity:1"
         id="g1925" />
      <g
         style="fill:#ff442a;fill-opacity:1"
         id="g1927" />
      <g
         style="fill:#ff442a;fill-opacity:1"
         id="g1929" />
      <g
         style="fill:#ff442a;fill-opacity:1"
         id="g1931" />
      <g
         style="fill:#ff442a;fill-opacity:1"
         id="g1933" />
      <g
         style="fill:#ff442a;fill-opacity:1"
         id="g1935" />
      <g
         style="fill:#ff442a;fill-opacity:1"
         id="g1937" />
      <g
         style="fill:#ff442a;fill-opacity:1"
         id="g1939" />
      <g
         style="fill:#ff442a;fill-opacity:1"
         id="g1941" />
      <g
         style="fill:#ff442a;fill-opacity:1"
         id="g1943" />
      <g
         style="fill:#ff442a;fill-opacity:1"
         id="g1945" />
      <g
         style="fill:#ff442a;fill-opacity:1"
         id="g1947" />
    </g>
    <g
       style="display:inline;fill:#f3ea92;fill-opacity:1"
       transform="matrix(0.0469422,0,0,0.04724702,0,252.53642)"
       id="g1989">
      <g
         style="fill:#f3ea92;fill-opacity:1"
         id="g1957">
        <path
           style="fill:#ff442a;fill-opacity:1"
           inkscape:connector-curvature="0"
           d="M 112,6 H 12 C 5.4,6 0,11.4 0,18 0,24.6 5.4,30 12,30 h 100 c 6.6,0 12,-5.4 12,-12 0,-6.6 -5.4,-12 -12,-12 z"
           id="path1951" />
        <path
           style="fill:#ff442a;fill-opacity:1"
           inkscape:connector-curvature="0"
           d="M 112,50 H 12 C 5.4,50 0,55.4 0,62 0,68.6 5.4,74 12,74 h 100 c 6.6,0 12,-5.4 12,-12 0,-6.6 -5.4,-12 -12,-12 z"
           id="path1953" />
        <path
           style="fill:#ff442a;fill-opacity:1"
           inkscape:connector-curvature="0"
           d="M 112,94 H 12 c -6.6,0 -12,5.4 -12,12 0,6.6 5.4,12 12,12 h 100 c 6.6,0 12,-5.4 12,-12 0,-6.6 -5.4,-12 -12,-12 z"
           id="path1955" />
      </g>
      <g
         style="fill:#f3ea92;fill-opacity:1"
         id="g1959" />
      <g
         style="fill:#f3ea92;fill-opacity:1"
         id="g1961" />
      <g
         style="fill:#f3ea92;fill-opacity:1"
         id="g1963" />
      <g
         style="fill:#f3ea92;fill-opacity:1"
         id="g1965" />
      <g
         style="fill:#f3ea92;fill-opacity:1"
         id="g1967" />
      <g
         style="fill:#f3ea92;fill-opacity:1"
         id="g1969" />
      <g
         style="fill:#f3ea92;fill-opacity:1"
         id="g1971" />
      <g
         style="fill:#f3ea92;fill-opacity:1"
         id="g1973" />
      <g
         style="fill:#f3ea92;fill-opacity:1"
         id="g1975" />
      <g
         style="fill:#f3ea92;fill-opacity:1"
         id="g1977" />
      <g
         style="fill:#f3ea92;fill-opacity:1"
         id="g1979" />
      <g
         style="fill:#f3ea92;fill-opacity:1"
         id="g1981" />
      <g
         style="fill:#f3ea92;fill-opacity:1"
         id="g1983" />
      <g
         style="fill:#f3ea92;fill-opacity:1"
         id="g1985" />
      <g
         style="fill:#f3ea92;fill-opacity:1"
         id="g1987" />
    </g>
    <g
       style="display:inline;fill:#ff442a;fill-opacity:1"
       transform="matrix(0.15549087,0,0,0.15903004,12.210298,252.64835)"
       id="g2026">
      <g
         style="fill:#ff442a;fill-opacity:1"
         id="g1993">
        <path
           style="fill:#ff442a;fill-opacity:1;stroke-width:0.93559957"
           inkscape:connector-curvature="0"
           d="M 40.584601,34.353395 H 3.1493902 l 1.0329019,-5.434898 c 0.00748,-1.594262 1.1264619,-1.632621 2.461563,-2.166849 l 6.2404489,-2.498986 c 0.09543,-0.03742 0.188056,-0.07672 0.281616,-0.118821 l 0.0065,-0.02433 0.01778,-0.06268 0.01778,-0.06268 c 1.182597,-0.534228 2.202401,-1.272416 2.512084,-1.78606 0.208639,-0.347107 0.436925,-0.478091 0.605333,-0.32746 0.03368,0.0019 0.06081,0.01965 0.08046,0.04491 0.175893,-0.532356 0.351785,-1.067519 0.526742,-1.599875 0.05801,-0.204896 0.180571,-0.102916 0.243256,0.05333 l -0.136597,-0.542648 -0.07766,-0.976766 c -0.121628,-0.130048 -0.21893,-0.237642 -0.284422,-0.310619 -0.409793,-0.464993 -0.437861,-1.693435 -0.642757,-1.992827 -0.204896,-0.299392 -0.609075,-0.364884 -1.018868,-1.757992 -0.408857,-1.394979 -0.903789,-3.38687 -0.378918,-3.419616 0.04959,-0.0028 0.100109,0.0084 0.15531,0.029 -0.03462,-0.194605 -0.07485,-0.197412 -0.118822,-0.469671 C 14.59458,10.406724 14.293317,9.5515857 14.264313,9.0444907 14.208177,7.915222 14.4926,4.730441 15.13255,3.6675999 c 0.640886,-1.0628412 1.643848,-1.9610168 3.073445,-2.2809918 1.254639,-0.2816155 4.96242,-0.52206459 6.139404,0 0.394823,0.1740215 0.877592,0.4285046 1.361297,0.7372525 0.806487,0.5127085 1.617652,1.1694994 2.019024,1.8328395 0.643693,1.0619056 0.829877,3.9566507 0.770934,5.0877906 -0.04397,0.8570092 -0.239513,2.0180883 -0.331202,2.5317323 0.149696,-0.134726 0.294714,-0.216123 0.425698,-0.209574 0.523936,0.03275 0.02526,2.024637 -0.381725,3.419616 -0.408857,1.393108 -0.813971,1.4586 -1.017932,1.757992 -0.204896,0.299392 -0.2339,1.527834 -0.640886,1.992827 -0.06268,0.06923 -0.156245,0.171215 -0.270388,0.292843 l -0.07017,1.195696 c -0.04023,0.661469 0.135662,0.05052 0.199283,0.288165 0.0421,0.128177 0.32091,0.994542 0.487447,1.452986 0.06923,0.185248 0.03555,0.281615 0.206768,0.193669 l 0.0075,-0.0065 0.0056,-0.0019 0.0084,-0.0028 9.36e-4,-9.36e-4 0.0037,-0.0019 0.0094,-0.0047 c 0.141276,-0.04865 0.309684,0.06268 0.477156,0.314361 v 0.0019 l 0.01403,0.01591 0.0028,0.0065 0.01684,0.02526 c 0.01965,0.03087 0.04023,0.06175 0.05894,0.09543 l 0.0047,0.0084 0.01497,0.01778 c 0.360206,0.490254 1.337907,1.189147 2.446593,1.6925 v 0.0037 c 0.104787,0.04678 0.214252,0.09356 0.321846,0.135662 l 6.24045,2.498987 c 1.336036,0.534227 2.454077,0.572587 2.461562,2.166848 z"
           id="path1991" />
      </g>
      <g
         style="fill:#ff442a;fill-opacity:1"
         id="g1995" />
      <g
         style="fill:#ff442a;fill-opacity:1"
         id="g1997" />
      <g
         style="fill:#ff442a;fill-opacity:1"
         id="g1999" />
      <g
         style="fill:#ff442a;fill-opacity:1"
         id="g2001" />
      <g
         style="fill:#ff442a;fill-opacity:1"
         id="g2003" />
      <g
         style="fill:#ff442a;fill-opacity:1"
         id="g2005" />
      <g
         style="fill:#ff442a;fill-opacity:1"
         id="g2007" />
      <g
         style="fill:#ff442a;fill-opacity:1"
         id="g2009" />
      <g
         style="fill:#ff442a;fill-opacity:1"
         id="g2011" />
      <g
         style="fill:#ff442a;fill-opacity:1"
         id="g2013" />
      <g
         style="fill:#ff442a;fill-opacity:1"
         id="g2015" />
      <g
         style="fill:#ff442a;fill-opacity:1"
         id="g2017" />
      <g
         style="fill:#ff442a;fill-opacity:1"
         id="g2020" />
      <g
         style="fill:#ff442a;fill-opacity:1"
         id="g2022" />
      <g
         style="fill:#ff442a;fill-opacity:1"
         id="g2024" />
    </g>
    <g
       style="display:inline;fill:#ff442a;fill-opacity:1"
       transform="matrix(0.30238047,0,0,0.29398148,26.458333,252.63617)"
       id="g2070">
      <g
         style="fill:#ff442a;fill-opacity:1"
         id="g2038">
        <g
           style="fill:#ff442a;fill-opacity:1"
           id="g2036">
          <g
             style="fill:#ff442a;fill-opacity:1"
             id="g2034">
            <path
               inkscape:connector-curvature="0"
               style="fill:#ff442a;fill-opacity:1"
               d="M 19.006,2.97 C 18.815,2.751 18.54,2.625 18.25,2.625 H 4.431 L 4.236,1.461 C 4.156,0.979 3.739,0.625 3.25,0.625 H 1 c -0.553,0 -1,0.447 -1,1 0,0.553 0.447,1 1,1 h 1.403 l 1.86,11.164 c 0.008,0.045 0.031,0.082 0.045,0.124 0.016,0.053 0.029,0.103 0.054,0.151 0.032,0.066 0.075,0.122 0.12,0.179 0.031,0.039 0.059,0.078 0.095,0.112 0.058,0.054 0.125,0.092 0.193,0.13 0.038,0.021 0.071,0.049 0.112,0.065 0.116,0.047 0.238,0.075 0.367,0.075 0.001,0 11.001,0 11.001,0 0.553,0 1,-0.447 1,-1 0,-0.553 -0.447,-1 -1,-1 H 6.097 l -0.166,-1 H 17.25 c 0.498,0 0.92,-0.366 0.99,-0.858 l 1,-7 C 19.281,3.479 19.195,3.188 19.006,2.97 Z m -1.909,1.655 -0.285,2 H 13.25 v -2 z m -4.847,0 v 2 h -3 v -2 z m 0,3 v 2 h -3 v -2 z m -4,-3 v 2 h -3 c -0.053,0 -0.101,0.015 -0.148,0.03 L 4.764,4.625 Z m -2.986,3 H 8.25 v 2 H 5.597 Z m 7.986,2 v -2 h 3.418 l -0.285,2 z"
               id="path2028" />
            <circle
               style="fill:#ff442a;fill-opacity:1"
               cx="6.75"
               cy="17.125"
               r="1.5"
               id="circle2030" />
            <circle
               style="fill:#ff442a;fill-opacity:1"
               cx="15.75"
               cy="17.125"
               r="1.5"
               id="circle2032" />
          </g>
        </g>
      </g>
      <g
         style="fill:#ff442a;fill-opacity:1"
         id="g2040" />
      <g
         style="fill:#ff442a;fill-opacity:1"
         id="g2042" />
      <g
         style="fill:#ff442a;fill-opacity:1"
         id="g2044" />
      <g
         style="fill:#ff442a;fill-opacity:1"
         id="g2046" />
      <g
         style="fill:#ff442a;fill-opacity:1"
         id="g2048" />
      <g
         style="fill:#ff442a;fill-opacity:1"
         id="g2050" />
      <g
         style="fill:#ff442a;fill-opacity:1"
         id="g2052" />
      <g
         style="fill:#ff442a;fill-opacity:1"
         id="g2054" />
      <g
         style="fill:#ff442a;fill-opacity:1"
         id="g2056" />
      <g
         style="fill:#ff442a;fill-opacity:1"
         id="g2058" />
      <g
         style="fill:#ff442a;fill-opacity:1"
         id="g2060" />
      <g
         style="fill:#ff442a;fill-opacity:1"
         id="g2062" />
      <g
         style="fill:#ff442a;fill-opacity:1"
         id="g2064" />
      <g
         style="fill:#ff442a;fill-opacity:1"
         id="g2066" />
      <g
         style="fill:#ff442a;fill-opacity:1"
         id="g2068" />
    </g>
    <g
       style="display:inline;fill:#ff442a;fill-opacity:1"
       transform="matrix(0.01124047,0,0,0.01230268,19.05,251.70111)"
       id="g2106">
      <g
         style="fill:#ff442a;fill-opacity:1"
         id="g2074">
        <path
           style="fill:#ff442a;fill-opacity:1"
           inkscape:connector-curvature="0"
           d="M 21.474,377.522 V 117.138 c 0,-14.469 11.729,-26.199 26.199,-26.199 h 260.25 c 14.469,0 26.198,11.73 26.198,26.199 v 260.385 c 0,4.823 -3.909,8.733 -8.733,8.733 H 30.207 c -4.824,0 -8.733,-3.91 -8.733,-8.734 z m 210.16,89.202 c 0,30.01 -24.329,54.338 -54.338,54.338 -30.009,0 -54.338,-24.328 -54.338,-54.338 0,-30.011 24.329,-54.338 54.338,-54.338 30.009,0 54.338,24.327 54.338,54.338 z m -27.17,0 c 0,-15.005 -12.164,-27.169 -27.169,-27.169 -15.005,0 -27.17,12.164 -27.17,27.169 0,15.005 12.165,27.17 27.17,27.17 15.005,0 27.169,-12.165 27.169,-27.17 z M 130.495,412.385 H 8.733 C 3.91,412.385 0,416.295 0,421.118 v 26.495 c 0,4.823 3.91,8.733 8.733,8.733 h 97.598 c 2.548,-17.484 11.373,-32.928 24.164,-43.961 z m 385.443,54.339 c 0,30.01 -24.329,54.338 -54.338,54.338 -30.01,0 -54.338,-24.328 -54.338,-54.338 0,-30.011 24.328,-54.338 54.338,-54.338 30.009,-0.001 54.338,24.327 54.338,54.338 z m -27.168,0 c 0,-15.005 -12.165,-27.169 -27.17,-27.169 -15.006,0 -27.169,12.164 -27.169,27.169 0,15.005 12.164,27.17 27.169,27.17 15.005,0 27.17,-12.165 27.17,-27.17 z M 612,421.118 v 26.495 c 0,4.823 -3.91,8.733 -8.733,8.733 h -70.704 c -5.057,-34.683 -34.906,-61.427 -70.961,-61.427 -36.062,0 -65.912,26.745 -70.969,61.427 H 248.261 c -2.549,-17.483 -11.373,-32.928 -24.164,-43.961 H 359.091 V 162.594 c 0,-9.646 7.82,-17.466 17.466,-17.466 h 82.445 c 23.214,0 44.911,11.531 57.9,30.77 l 53.15,78.721 c 7.796,11.547 11.962,25.161 11.962,39.094 v 118.672 h 21.253 c 4.823,0 8.733,3.91 8.733,8.733 z M 523.408,256.635 480.907,196.242 c -1.636,-2.324 -4.3,-3.707 -7.142,-3.707 H 407.47 c -4.822,0 -8.733,3.91 -8.733,8.733 v 60.393 c 0,4.824 3.91,8.733 8.733,8.733 h 108.798 c 7.074,0 11.212,-7.973 7.14,-13.759 z"
           id="path2072" />
      </g>
      <g
         style="fill:#ff442a;fill-opacity:1"
         id="g2076" />
      <g
         style="fill:#ff442a;fill-opacity:1"
         id="g2078" />
      <g
         style="fill:#ff442a;fill-opacity:1"
         id="g2080" />
      <g
         style="fill:#ff442a;fill-opacity:1"
         id="g2082" />
      <g
         style="fill:#ff442a;fill-opacity:1"
         id="g2084" />
      <g
         style="fill:#ff442a;fill-opacity:1"
         id="g2086" />
      <g
         style="fill:#ff442a;fill-opacity:1"
         id="g2088" />
      <g
         style="fill:#ff442a;fill-opacity:1"
         id="g2090" />
      <g
         style="fill:#ff442a;fill-opacity:1"
         id="g2092" />
      <g
         style="fill:#ff442a;fill-opacity:1"
         id="g2094" />
      <g
         style="fill:#ff442a;fill-opacity:1"
         id="g2096" />
      <g
         style="fill:#ff442a;fill-opacity:1"
         id="g2098" />
      <g
         style="fill:#ff442a;fill-opacity:1"
         id="g2100" />
      <g
         style="fill:#ff442a;fill-opacity:1"
         id="g2102" />
      <g
         style="fill:#ff442a;fill-opacity:1"
         id="g2104" />
    </g>
    <path
       style="display:inline;fill:#e8e4e5;fill-opacity:1;stroke:none;stroke-width:0.26458332;stroke-miterlimit:4;stroke-dasharray:none;stroke-opacity:1"
       inkscape:connector-curvature="0"
       d="m 8.1962404,295.34117 c 0.230248,-0.31443 0.367979,-0.70065 0.367979,-1.11935 0,-1.04809 -0.85276,-1.90084 -1.9008683,-1.90084 -1.0480914,0 -1.9008511,0.85275 -1.9008511,1.90084 0,1.04811 0.8527597,1.90086 1.9008611,1.90086 0.4186793,0 0.8049383,-0.13773 1.1193693,-0.36798 l 1.245299,1.2453 0.41352,-0.41353 c 0,-1e-5 -1.245309,-1.2453 -1.245309,-1.2453 z m -1.5328793,0.19664 c -0.7256697,0 -1.3159814,-0.59031 -1.3159814,-1.31599 0,-0.72567 0.5903117,-1.31597 1.3159814,-1.31597 0.7256693,0 1.3159793,0.5903 1.3159793,1.31597 0,0.72568 -0.59031,1.31599 -1.3159793,1.31599 z"
       id="path2108" />
    <g
       id="g368"
       transform="matrix(0.01137713,0,0,0.01316342,32.808333,252.09836)"
       style="fill:#a43c97;fill-opacity:1">
      <g
         id="g306"
         style="fill:#a43c97;fill-opacity:1">
        <g
           id="g304"
           style="fill:#a43c97;fill-opacity:1">
          <path
             id="path292"
             d="M 118.771,200.999 H 27.406 c -7.611,0 -14.084,2.664 -19.414,7.994 C 2.663,214.32 0,220.791 0,228.407 v 54.823 c 0,7.61 2.663,14.078 7.992,19.406 5.33,5.329 11.803,7.994 19.414,7.994 h 91.365 c 7.611,0 14.084,-2.665 19.414,-7.994 5.33,-5.328 7.992,-11.796 7.992,-19.406 v -54.823 c 0,-7.616 -2.662,-14.087 -7.992,-19.414 -5.33,-5.327 -11.803,-7.994 -19.414,-7.994 z"
             inkscape:connector-curvature="0"
             style="fill:#ff442a;fill-opacity:1" />
          <path
             id="path294"
             d="M 118.771,54.814 H 27.406 c -7.611,0 -14.084,2.663 -19.414,7.993 C 2.663,68.137 0,74.61 0,82.221 v 54.821 c 0,7.616 2.663,14.091 7.992,19.417 5.33,5.327 11.803,7.994 19.414,7.994 h 91.365 c 7.611,0 14.084,-2.667 19.414,-7.994 5.33,-5.327 7.992,-11.798 7.992,-19.414 v -54.82 c 0,-7.611 -2.662,-14.084 -7.992,-19.417 -5.33,-5.328 -11.803,-7.994 -19.414,-7.994 z"
             inkscape:connector-curvature="0"
             style="fill:#ff442a;fill-opacity:1" />
          <path
             id="path296"
             d="M 118.771,347.177 H 27.406 c -7.611,0 -14.084,2.662 -19.414,7.994 C 2.663,360.502 0,366.974 0,374.585 v 54.826 c 0,7.61 2.663,14.086 7.992,19.41 5.33,5.332 11.803,7.991 19.414,7.991 h 91.365 c 7.611,0 14.084,-2.663 19.414,-7.991 5.33,-5.324 7.992,-11.8 7.992,-19.41 v -54.826 c 0,-7.611 -2.662,-14.083 -7.992,-19.411 -5.33,-5.328 -11.803,-7.997 -19.414,-7.997 z"
             inkscape:connector-curvature="0"
             style="fill:#ff442a;fill-opacity:1" />
          <path
             id="path298"
             d="M 484.215,200.999 H 210.131 c -7.614,0 -14.084,2.664 -19.414,7.994 -5.33,5.33 -7.992,11.798 -7.992,19.414 v 54.823 c 0,7.61 2.662,14.078 7.992,19.406 5.327,5.329 11.8,7.994 19.414,7.994 h 274.091 c 7.61,0 14.085,-2.665 19.41,-7.994 5.332,-5.328 7.994,-11.796 7.994,-19.406 v -54.823 c 0,-7.616 -2.662,-14.087 -7.997,-19.414 -5.329,-5.33 -11.796,-7.994 -19.414,-7.994 z"
             inkscape:connector-curvature="0"
             style="fill:#ff442a;fill-opacity:1" />
          <path
             id="path300"
             d="M 484.215,347.177 H 210.131 c -7.614,0 -14.084,2.662 -19.414,7.994 -5.33,5.331 -7.992,11.8 -7.992,19.41 v 54.823 c 0,7.611 2.662,14.089 7.992,19.417 5.327,5.328 11.8,7.987 19.414,7.987 h 274.091 c 7.61,0 14.085,-2.662 19.41,-7.987 5.332,-5.331 7.994,-11.806 7.994,-19.417 v -54.823 c 0,-7.61 -2.662,-14.085 -7.997,-19.41 -5.329,-5.325 -11.796,-7.994 -19.414,-7.994 z"
             inkscape:connector-curvature="0"
             style="fill:#ff442a;fill-opacity:1" />
          <path
             id="path302"
             d="M 503.629,62.811 C 498.3,57.484 491.832,54.818 484.215,54.818 H 210.131 c -7.614,0 -14.084,2.663 -19.414,7.993 -5.33,5.33 -7.992,11.803 -7.992,19.414 v 54.821 c 0,7.616 2.662,14.083 7.992,19.414 5.327,5.327 11.8,7.994 19.414,7.994 h 274.091 c 7.61,0 14.078,-2.667 19.41,-7.994 5.332,-5.327 7.994,-11.798 7.994,-19.414 V 82.225 c 0,-7.612 -2.662,-14.084 -7.997,-19.414 z"
             inkscape:connector-curvature="0"
             style="fill:#ff442a;fill-opacity:1" />
        </g>
      </g>
      <g
         id="g308"
         style="fill:#a43c97;fill-opacity:1" />
      <g
         id="g310"
         style="fill:#a43c97;fill-opacity:1" />
      <g
         id="g312"
         style="fill:#a43c97;fill-opacity:1" />
      <g
         id="g314"
         style="fill:#a43c97;fill-opacity:1" />
      <g
         id="g316"
         style="fill:#a43c97;fill-opacity:1" />
      <g
         id="g318"
         style="fill:#a43c97;fill-opacity:1" />
      <g
         id="g320"
         style="fill:#a43c97;fill-opacity:1" />
      <g
         id="g322"
         style="fill:#a43c97;fill-opacity:1" />
      <g
         id="g324"
         style="fill:#a43c97;fill-opacity:1" />
      <g
         id="g326"
         style="fill:#a43c97;fill-opacity:1" />
      <g
         id="g328"
         style="fill:#a43c97;fill-opacity:1" />
      <g
         id="g330"
         style="fill:#a43c97;fill-opacity:1" />
      <g
         id="g332"
         style="fill:#a43c97;fill-opacity:1" />
      <g
         id="g334"
         style="fill:#a43c97;fill-opacity:1" />
      <g
         id="g336"
         style="fill:#a43c97;fill-opacity:1" />
    </g>
    <g
       transform="matrix(0.01137713,0,0,0.01316342,32.808333,257.91919)"
       id="g454"
       style="fill:#acbaba;fill-opacity:1">
      <g
         id="g422"
         style="fill:#acbaba;fill-opacity:1">
        <g
           id="g420"
           style="fill:#acbaba;fill-opacity:1">
          <path
             inkscape:connector-curvature="0"
             d="M 118.771,200.999 H 27.406 c -7.611,0 -14.084,2.664 -19.414,7.994 C 2.663,214.32 0,220.791 0,228.407 v 54.823 c 0,7.61 2.663,14.078 7.992,19.406 5.33,5.329 11.803,7.994 19.414,7.994 h 91.365 c 7.611,0 14.084,-2.665 19.414,-7.994 5.33,-5.328 7.992,-11.796 7.992,-19.406 v -54.823 c 0,-7.616 -2.662,-14.087 -7.992,-19.414 -5.33,-5.327 -11.803,-7.994 -19.414,-7.994 z"
             id="path408"
             style="fill:#acbaba;fill-opacity:1" />
          <path
             inkscape:connector-curvature="0"
             d="M 118.771,54.814 H 27.406 c -7.611,0 -14.084,2.663 -19.414,7.993 C 2.663,68.137 0,74.61 0,82.221 v 54.821 c 0,7.616 2.663,14.091 7.992,19.417 5.33,5.327 11.803,7.994 19.414,7.994 h 91.365 c 7.611,0 14.084,-2.667 19.414,-7.994 5.33,-5.327 7.992,-11.798 7.992,-19.414 v -54.82 c 0,-7.611 -2.662,-14.084 -7.992,-19.417 -5.33,-5.328 -11.803,-7.994 -19.414,-7.994 z"
             id="path410"
             style="fill:#acbaba;fill-opacity:1" />
          <path
             inkscape:connector-curvature="0"
             d="M 118.771,347.177 H 27.406 c -7.611,0 -14.084,2.662 -19.414,7.994 C 2.663,360.502 0,366.974 0,374.585 v 54.826 c 0,7.61 2.663,14.086 7.992,19.41 5.33,5.332 11.803,7.991 19.414,7.991 h 91.365 c 7.611,0 14.084,-2.663 19.414,-7.991 5.33,-5.324 7.992,-11.8 7.992,-19.41 v -54.826 c 0,-7.611 -2.662,-14.083 -7.992,-19.411 -5.33,-5.328 -11.803,-7.997 -19.414,-7.997 z"
             id="path412"
             style="fill:#acbaba;fill-opacity:1" />
          <path
             inkscape:connector-curvature="0"
             d="M 484.215,200.999 H 210.131 c -7.614,0 -14.084,2.664 -19.414,7.994 -5.33,5.33 -7.992,11.798 -7.992,19.414 v 54.823 c 0,7.61 2.662,14.078 7.992,19.406 5.327,5.329 11.8,7.994 19.414,7.994 h 274.091 c 7.61,0 14.085,-2.665 19.41,-7.994 5.332,-5.328 7.994,-11.796 7.994,-19.406 v -54.823 c 0,-7.616 -2.662,-14.087 -7.997,-19.414 -5.329,-5.33 -11.796,-7.994 -19.414,-7.994 z"
             id="path414"
             style="fill:#acbaba;fill-opacity:1" />
          <path
             inkscape:connector-curvature="0"
             d="M 484.215,347.177 H 210.131 c -7.614,0 -14.084,2.662 -19.414,7.994 -5.33,5.331 -7.992,11.8 -7.992,19.41 v 54.823 c 0,7.611 2.662,14.089 7.992,19.417 5.327,5.328 11.8,7.987 19.414,7.987 h 274.091 c 7.61,0 14.085,-2.662 19.41,-7.987 5.332,-5.331 7.994,-11.806 7.994,-19.417 v -54.823 c 0,-7.61 -2.662,-14.085 -7.997,-19.41 -5.329,-5.325 -11.796,-7.994 -19.414,-7.994 z"
             id="path416"
             style="fill:#acbaba;fill-opacity:1" />
          <path
             inkscape:connector-curvature="0"
             d="M 503.629,62.811 C 498.3,57.484 491.832,54.818 484.215,54.818 H 210.131 c -7.614,0 -14.084,2.663 -19.414,7.993 -5.33,5.33 -7.992,11.803 -7.992,19.414 v 54.821 c 0,7.616 2.662,14.083 7.992,19.414 5.327,5.327 11.8,7.994 19.414,7.994 h 274.091 c 7.61,0 14.078,-2.667 19.41,-7.994 5.332,-5.327 7.994,-11.798 7.994,-19.414 V 82.225 c 0,-7.612 -2.662,-14.084 -7.997,-19.414 z"
             id="path418"
             style="fill:#acbaba;fill-opacity:1" />
        </g>
      </g>
      <g
         id="g424"
         style="fill:#acbaba;fill-opacity:1" />
      <g
         id="g426"
         style="fill:#acbaba;fill-opacity:1" />
      <g
         id="g428"
         style="fill:#acbaba;fill-opacity:1" />
      <g
         id="g430"
         style="fill:#acbaba;fill-opacity:1" />
      <g
         id="g432"
         style="fill:#acbaba;fill-opacity:1" />
      <g
         id="g434"
         style="fill:#acbaba;fill-opacity:1" />
      <g
         id="g436"
         style="fill:#acbaba;fill-opacity:1" />
      <g
         id="g438"
         style="fill:#acbaba;fill-opacity:1" />
      <g
         id="g440"
         style="fill:#acbaba;fill-opacity:1" />
      <g
         id="g442"
         style="fill:#acbaba;fill-opacity:1" />
      <g
         id="g444"
         style="fill:#acbaba;fill-opacity:1" />
      <g
         id="g446"
         style="fill:#acbaba;fill-opacity:1" />
      <g
         id="g448"
         style="fill:#acbaba;fill-opacity:1" />
      <g
         id="g450"
         style="fill:#acbaba;fill-opacity:1" />
      <g
         id="g452"
         style="fill:#acbaba;fill-opacity:1" />
    </g>
  </g>
</svg>
