<?xml version="1.0" encoding="UTF-8" standalone="no"?>
<!-- Created with Inkscape (http://www.inkscape.org/) -->

<svg
   xmlns:dc="http://purl.org/dc/elements/1.1/"
   xmlns:cc="http://creativecommons.org/ns#"
   xmlns:rdf="http://www.w3.org/1999/02/22-rdf-syntax-ns#"
   xmlns:svg="http://www.w3.org/2000/svg"
   xmlns="http://www.w3.org/2000/svg"
   xmlns:sodipodi="http://sodipodi.sourceforge.net/DTD/sodipodi-0.dtd"
   xmlns:inkscape="http://www.inkscape.org/namespaces/inkscape"
   width="6.1919875mm"
   height="4.0326986mm"
   viewBox="0 0 6.1919875 4.0326986"
   version="1.1"
   id="svg738"
   inkscape:version="0.92.4 (unknown)"
   sodipodi:docname="view.svg">
  <defs
     id="defs732" />
  <sodipodi:namedview
     id="base"
     pagecolor="#ffffff"
     bordercolor="#666666"
     borderopacity="1.0"
     inkscape:pageopacity="0.0"
     inkscape:pageshadow="2"
     inkscape:zoom="0.70683594"
     inkscape:cx="338.84149"
     inkscape:cy="-144.00117"
     inkscape:document-units="mm"
     inkscape:current-layer="layer1"
     showgrid="false"
     inkscape:window-width="1366"
     inkscape:window-height="704"
     inkscape:window-x="0"
     inkscape:window-y="27"
     inkscape:window-maximized="1" />
  <metadata
     id="metadata735">
    <rdf:RDF>
      <cc:Work
         rdf:about="">
        <dc:format>image/svg+xml</dc:format>
        <dc:type
           rdf:resource="http://purl.org/dc/dcmitype/StillImage" />
        <dc:title></dc:title>
      </cc:Work>
    </rdf:RDF>
  </metadata>
  <g
     inkscape:label="Layer 1"
     inkscape:groupmode="layer"
     id="layer1"
     transform="translate(35.661896,-106.70033)">
    <g
       style="display:inline;fill:#1a1a1a;fill-opacity:1"
       transform="matrix(0.01209372,0,0,0.01493592,-35.66189,104.89308)"
       id="g5776">
      <g
         style="fill:#1a1a1a;fill-opacity:1"
         id="g5738">
        <g
           style="fill:#1a1a1a;fill-opacity:1"
           id="g5736">
          <path
             style="fill:#1a1a1a;fill-opacity:1"
             inkscape:connector-curvature="0"
             d="M 508.177,245.995 C 503.607,240.897 393.682,121 256,121 118.318,121 8.394,240.897 3.823,245.995 c -5.098,5.698 -5.098,14.312 0,20.01 C 8.394,271.103 118.32,391 256,391 c 137.68,0 247.606,-119.897 252.177,-124.995 5.097,-5.698 5.097,-14.312 0,-20.01 z M 256,361 c -57.891,0 -105,-47.109 -105,-105 0,-57.891 47.109,-105 105,-105 57.891,0 105,47.109 105,105 0,57.891 -47.109,105 -105,105 z"
             id="path5734" />
        </g>
      </g>
      <g
         style="fill:#1a1a1a;fill-opacity:1"
         id="g5744">
        <g
           style="fill:#1a1a1a;fill-opacity:1"
           id="g5742">
          <path
             style="fill:#1a1a1a;fill-opacity:1"
             inkscape:connector-curvature="0"
             d="m 271,226 c 0,-15.09 7.491,-28.365 18.887,-36.53 C 279.661,184.235 268.255,181 256,181 c -41.353,0 -75,33.647 -75,75 0,41.353 33.647,75 75,75 37.024,0 67.668,-27.034 73.722,-62.358 C 299.516,278.367 271,255.522 271,226 Z"
             id="path5740" />
        </g>
      </g>
      <g
         style="fill:#1a1a1a;fill-opacity:1"
         id="g5746" />
      <g
         style="fill:#1a1a1a;fill-opacity:1"
         id="g5748" />
      <g
         style="fill:#1a1a1a;fill-opacity:1"
         id="g5750" />
      <g
         style="fill:#1a1a1a;fill-opacity:1"
         id="g5752" />
      <g
         style="fill:#1a1a1a;fill-opacity:1"
         id="g5754" />
      <g
         style="fill:#1a1a1a;fill-opacity:1"
         id="g5756" />
      <g
         style="fill:#1a1a1a;fill-opacity:1"
         id="g5758" />
      <g
         style="fill:#1a1a1a;fill-opacity:1"
         id="g5760" />
      <g
         style="fill:#1a1a1a;fill-opacity:1"
         id="g5762" />
      <g
         style="fill:#1a1a1a;fill-opacity:1"
         id="g5764" />
      <g
         style="fill:#1a1a1a;fill-opacity:1"
         id="g5766" />
      <g
         style="fill:#1a1a1a;fill-opacity:1"
         id="g5768" />
      <g
         style="fill:#1a1a1a;fill-opacity:1"
         id="g5770" />
      <g
         style="fill:#1a1a1a;fill-opacity:1"
         id="g5772" />
      <g
         style="fill:#1a1a1a;fill-opacity:1"
         id="g5774" />
    </g>
  </g>
</svg>
