<svg id="Capa_1" enable-background="new 0 0 512 512" height="512" viewBox="0 0 512 512" width="512" xmlns="http://www.w3.org/2000/svg"><path d="m445.912 502h-379.824c-18.531 0-33.553-15.022-33.553-33.553v-424.894c0-18.531 15.022-33.553 33.553-33.553h379.823c18.531 0 33.553 15.022 33.553 33.553v424.893c.001 18.532-15.021 33.554-33.552 33.554z" fill="#f9f5f3"/><circle cx="66.217" cy="43.682" fill="#ff7b7b" r="33.682"/><path d="m421.148 77.366h58.313v-33.813c0-18.532-15.021-33.553-33.553-33.553h-379.693c18.602 0 33.683 15.081 33.683 33.683s-15.081 33.683-33.683 33.683h266.949z" fill="#c1afb4"/><path d="m95.733 131.319h320.527v130.115h-320.527z" fill="#a0e4a5"/><path d="m99.898 357.03h153.423v90.912h-153.423z" fill="#ffce69"/><path d="m66.088 512h379.823c24.016 0 43.554-19.538 43.554-43.554v-424.892c0-24.016-19.538-43.554-43.553-43.554h-.004-379.694-.126c-24.015 0-43.553 19.538-43.553 43.554v424.893c0 24.015 19.538 43.553 43.553 43.553zm379.82-492c12.987 0 23.553 10.566 23.553 23.553v23.813h-48.313c-5.523 0-10 4.477-10 10s4.477 10 10 10h48.317v381.081c0 12.987-10.566 23.554-23.554 23.554h-379.823c-12.988 0-23.554-10.566-23.554-23.554v-388.089c6.802 4.407 14.894 6.983 23.581 7.003.033 0 .066.005.099.005h266.949c5.523 0 10-4.477 10-10s-4.477-10-10-10h-230.257c4.187-6.462 6.597-14.013 6.942-21.704.404-9.024-2.029-18.077-6.942-25.662zm-379.693 0c13.059 0 23.682 10.624 23.682 23.683 0 4.488-1.255 8.689-3.433 12.27-4.158 6.836-11.679 11.411-20.248 11.411-13.058 0-23.682-10.624-23.682-23.682.001-13.058 10.624-23.682 23.681-23.682z"/><path d="m85.732 131.319v130.115c0 5.523 4.477 10 10 10h320.528c5.523 0 10-4.477 10-10v-130.115c0-5.523-4.477-10-10-10h-320.528c-5.523 0-10 4.477-10 10zm20 10h300.528v110.115h-300.528z"/><path d="m195.838 162.086c-.031-.083-.064-.165-.098-.247-1.604-3.899-5.363-6.416-9.578-6.416-.004 0-.008 0-.012 0-4.22.005-7.979 2.532-9.576 6.438-.027.067-.054.134-.08.202l-22.494 59.064c-1.769 4.645.562 9.845 5.208 11.614 4.644 1.769 9.845-.562 11.614-5.208l3.395-8.913h23.718l3.354 8.888c1.36 3.604 4.785 5.825 8.422 5.825 1.056 0 2.13-.188 3.176-.582 4.65-1.755 6.998-6.948 5.243-11.598zm-14.767 38.534 5.058-13.28 5.012 13.28z"/><path d="m256.926 156.309h-16.465c-2.39 0-4.682.951-6.37 2.642s-2.634 3.985-2.63 6.375v.042.002 57.13c0 5.248 3.639 9.944 9.152 9.944.498-.002 12.25-.047 16.952-.129 18.448-.322 31.837-16.278 31.837-37.938.001-22.77-13.05-38.068-32.476-38.068zm.325 58.009c-1.807.031-4.77.058-7.702.078-.021-6.721-.045-15.498-.045-20.083 0-3.849-.014-12.999-.026-20.003h7.449c13.433 0 14.477 15.36 14.477 20.067-.001 9.802-4.377 19.77-14.153 19.941z"/><path d="m338.522 186.405c-7.094-2.617-13.717-5.461-16.02-6.466-.856-.789-.868-1.81-.785-2.39.111-.771.693-2.66 3.705-3.567 7.626-2.298 14.846 3.337 15.096 3.536 3.806 3.147 9.442 2.641 12.624-1.146 3.199-3.805 2.707-9.482-1.098-12.68-.591-.496-14.673-12.106-31.813-6.946-8.839 2.663-15.097 9.654-16.33 18.245-1.162 8.097 2.35 15.887 9.165 20.33.397.259.815.486 1.248.68.349.155 8.643 3.848 17.98 7.292 3.649 1.346 7.375 3.753 6.89 6.472-.4 2.244-3.531 5.565-8.977 5.565-5.535 0-10.846-2.214-14.207-5.924-3.339-3.682-9.029-3.962-12.713-.625-3.683 3.338-3.963 9.03-.625 12.713 6.817 7.522 16.857 11.836 27.545 11.836 13.358 0 24.586-8.58 26.697-20.402 1.597-8.955-2.391-20.625-18.382-26.523z"/><path d="m203.49 316.26c3.938 1.614 8.615.544 11.397-2.703 2.722-3.176 3.186-7.811 1.124-11.452-2.098-3.705-6.463-5.734-10.651-4.885-4.084.828-7.326 4.206-7.935 8.338-.661 4.488 1.882 8.959 6.065 10.702z"/><path d="m245.01 312.58c3.027 4.539 9.325 5.769 13.86 2.76 4.533-3.008 5.78-9.337 2.77-13.86-3.021-4.539-9.338-5.788-13.87-2.77-4.565 3.04-5.737 9.318-2.76 13.87z"/><path d="m291.01 312.58c3.089 4.503 9.288 5.795 13.87 2.76 4.545-3.01 5.76-9.34 2.76-13.86-3.014-4.54-9.34-5.791-13.87-2.77-4.531 3.022-5.776 9.345-2.76 13.87z"/><path d="m253.321 347.03h-153.423c-5.523 0-10 4.477-10 10v90.912c0 5.523 4.477 10 10 10h153.422c5.523 0 10-4.477 10-10v-90.912c.001-5.523-4.476-10-9.999-10zm-10 90.912h-133.423v-70.912h133.422v70.912z"/><path d="m416.26 347.03h-116.935c-5.523 0-10 4.477-10 10s4.477 10 10 10h116.935c5.523 0 10-4.477 10-10s-4.477-10-10-10z"/><path d="m416.26 392.486h-116.935c-5.523 0-10 4.477-10 10s4.477 10 10 10h116.935c5.523 0 10-4.477 10-10s-4.477-10-10-10z"/><path d="m416.26 437.942h-75.275c-5.523 0-10 4.477-10 10s4.477 10 10 10h75.275c5.523 0 10-4.477 10-10s-4.477-10-10-10z"/><path d="m368.96 81.19c1.634 3.923 5.719 6.479 9.971 6.148 4.354-.339 8.047-3.519 9.015-7.779 1.983-8.727-8.175-15.5-15.498-10.366-3.777 2.647-5.267 7.728-3.488 11.997z"/><path d="m308.56 444.12c-1.616-3.943-5.725-6.461-9.972-6.144-4.173.311-7.774 3.273-8.894 7.301-2.376 8.539 7.2 15.756 14.768 11.244 4.194-2.501 5.975-7.896 4.098-12.401z"/></svg>