<svg id="Layer_1" enable-background="new 0 0 512 512" height="512" viewBox="0 0 512 512" width="512" xmlns="http://www.w3.org/2000/svg"><path d="m221 10h70v46h-70z" fill="#dd9366"/><path d="m291 472-35 30-35-30v-134h70z" fill="#dd9366"/><path d="m10 56h492v282h-492z" fill="#c5d3de"/><path d="m100 204c14.27-15.697-14-46 11-62 25.282-16.181 36 25 66 25s21.397-21.642 23-35c3-25 26-34 37-28 17.776 9.696 1 37 2 52 1.073 16.089 11 24 18 29 20.098 14.356 45 35 27 72-12.155 24.985-52 8-70 0s-47.903-15.747-74 6c-24 20-45 6-52-3s-8-34 12-56z" fill="#80b6ff"/><path d="m411 66c5.51 0 10-4.49 10-10s-4.49-10-10-10-10 4.49-10 10 4.49 10 10 10z"/><path d="m509.07 48.93c-1.86-1.86-4.44-2.93-7.07-2.93h-46c-5.51 0-10 4.49-10 10s4.49 10 10 10h36v262h-472v-262h346c5.51 0 10-4.49 10-10s-4.48-9.99-9.99-10h-.01-65v-36c0-5.523-4.477-10-10-10h-70c-5.523 0-10 4.477-10 10v36h-201c-2.63 0-5.21 1.07-7.07 2.93s-2.93 4.44-2.93 7.07v282c0 2.63 1.07 5.21 2.93 7.07s4.44 2.93 7.07 2.93h201v124c0 2.919 1.276 5.693 3.492 7.593l35 30c1.873 1.605 4.19 2.407 6.508 2.407s4.635-.802 6.508-2.407l35-30c2.216-1.9 3.492-4.673 3.492-7.593v-124h201c2.63 0 5.21-1.07 7.07-2.93s2.93-4.44 2.93-7.07v-282c0-2.63-1.07-5.21-2.93-7.07zm-278.07-28.93h50v26h-50zm50 447.401-25 21.428-25-21.428v-119.401h50z"/><path d="m346 296h102c5.523 0 10-4.477 10-10s-4.477-10-10-10h-102c-5.523 0-10 4.477-10 10s4.477 10 10 10z"/><path d="m448 236h-57c-5.51 0-10 4.49-10 10s4.49 10 10 10h57c5.51 0 10-4.49 10-10s-4.49-10-10-10z"/><path d="m346 256c5.51 0 10-4.49 10-10s-4.49-10-10-10-10 4.49-10 10 4.49 10 10 10z"/><path d="m448 196h-102c-5.523 0-10 4.477-10 10s4.477 10 10 10h102c5.523 0 10-4.477 10-10s-4.477-10-10-10z"/><path d="m249.664 279.252c26.617 4.117 38.255-7.45 43.328-17.877 22.729-46.72-14.348-73.203-30.18-84.512-6.588-4.706-13.082-10.244-13.834-21.528-.222-3.33 1.221-9.023 2.616-14.528 3.567-14.077 8.959-35.351-9.805-45.585-7.993-4.36-19.053-3.927-28.863 1.131-12.681 6.538-21.011 19.097-22.854 34.457-.425 3.538-.301 7.158-.181 10.659.175 5.125.374 10.934-1.6 12.977-.743.767-3.33 2.554-11.291 2.554-9.827 0-17.417-6.66-25.454-13.711-10.877-9.544-25.775-22.615-45.937-9.712-19.761 12.647-15.767 32.508-13.123 45.651 1.862 9.258 2.798 15.092.114 18.045-21.989 24.188-23.606 54.579-12.494 68.866 5.567 7.157 16.45 15.338 30.297 16.833 1.349.146 2.812.234 4.375.234 8.384 0 19.651-2.548 31.623-12.524 17.023-14.187 38.399-15.716 63.537-4.544 7.808 3.47 24.055 10.691 39.726 13.114zm-116.066-23.934c-7.079 5.899-14.162 8.517-21.048 7.77-8.168-.882-14.313-6.215-16.656-9.228-3.636-4.675-5.552-24.37 11.506-43.134 9.681-10.648 6.916-24.396 4.694-35.441-2.86-14.218-3.23-20.045 4.297-24.862 6.443-4.126 9.524-3.017 21.965 7.9 9.484 8.321 21.288 18.677 38.644 18.677 11.646 0 20.043-2.832 25.673-8.658 7.871-8.145 7.486-19.366 7.206-27.56-.099-2.871-.191-5.582.05-7.591 1.477-12.308 8.997-17.431 12.161-19.063 4.751-2.449 8.656-2.149 10.122-1.35 4.4 2.4 3.554 9.07-.005 23.115-1.86 7.341-3.618 14.274-3.185 20.772 1.445 21.671 15.965 32.043 22.166 36.472 24.798 17.713 36.646 33.125 23.82 59.488-5.529 11.368-24.158 9.81-56.946-4.764-31.759-14.114-61.756-11.466-84.464 7.457z"/></svg>