<?xml version="1.0" encoding="UTF-8" standalone="no"?>
<!-- Generator: Adobe Illustrator 19.0.0, SVG Export Plug-In . SVG Version: 6.00 Build 0)  -->

<svg
   xmlns:dc="http://purl.org/dc/elements/1.1/"
   xmlns:cc="http://creativecommons.org/ns#"
   xmlns:rdf="http://www.w3.org/1999/02/22-rdf-syntax-ns#"
   xmlns:svg="http://www.w3.org/2000/svg"
   xmlns="http://www.w3.org/2000/svg"
   xmlns:sodipodi="http://sodipodi.sourceforge.net/DTD/sodipodi-0.dtd"
   xmlns:inkscape="http://www.inkscape.org/namespaces/inkscape"
   version="1.1"
   id="Layer_1"
   x="0px"
   y="0px"
   viewBox="0 0 286.054 286.054"
   style="enable-background:new 0 0 286.054 286.054;"
   xml:space="preserve"
   sodipodi:docname="cancel.svg"
   inkscape:version="0.92.4 (unknown)"><metadata
   id="metadata41"><rdf:RDF><cc:Work
       rdf:about=""><dc:format>image/svg+xml</dc:format><dc:type
         rdf:resource="http://purl.org/dc/dcmitype/StillImage" /></cc:Work></rdf:RDF></metadata><defs
   id="defs39" /><sodipodi:namedview
   pagecolor="#ffffff"
   bordercolor="#666666"
   borderopacity="1"
   objecttolerance="10"
   gridtolerance="10"
   guidetolerance="10"
   inkscape:pageopacity="0"
   inkscape:pageshadow="2"
   inkscape:window-width="640"
   inkscape:window-height="480"
   id="namedview37"
   showgrid="false"
   inkscape:zoom="0.94748287"
   inkscape:cx="143.02699"
   inkscape:cy="143.55471"
   inkscape:window-x="0"
   inkscape:window-y="27"
   inkscape:window-maximized="0"
   inkscape:current-layer="Layer_1" />
<g
   id="g4"
   style="fill:#d40000">
	<path
   style="fill:#d40000"
   d="M168.352,142.924l25.28-25.28c3.495-3.504,3.495-9.154,0-12.64l-12.64-12.649   c-3.495-3.486-9.145-3.495-12.64,0l-25.289,25.289l-25.271-25.271c-3.504-3.504-9.163-3.504-12.658-0.018l-12.64,12.649   c-3.495,3.486-3.486,9.154,0.018,12.649l25.271,25.271L92.556,168.15c-3.495,3.495-3.495,9.145,0,12.64l12.64,12.649   c3.495,3.486,9.145,3.495,12.64,0l25.226-25.226l25.405,25.414c3.504,3.504,9.163,3.504,12.658,0.009l12.64-12.64   c3.495-3.495,3.486-9.154-0.009-12.658L168.352,142.924z M143.027,0.004C64.031,0.004,0,64.036,0,143.022   c0,78.996,64.031,143.027,143.027,143.027s143.027-64.031,143.027-143.027C286.054,64.045,222.022,0.004,143.027,0.004z    M143.027,259.232c-64.183,0-116.209-52.026-116.209-116.209s52.026-116.21,116.209-116.21s116.209,52.026,116.209,116.209   S207.21,259.232,143.027,259.232z"
   id="path2" />
</g>
<g
   id="g6">
</g>
<g
   id="g8">
</g>
<g
   id="g10">
</g>
<g
   id="g12">
</g>
<g
   id="g14">
</g>
<g
   id="g16">
</g>
<g
   id="g18">
</g>
<g
   id="g20">
</g>
<g
   id="g22">
</g>
<g
   id="g24">
</g>
<g
   id="g26">
</g>
<g
   id="g28">
</g>
<g
   id="g30">
</g>
<g
   id="g32">
</g>
<g
   id="g34">
</g>
</svg>