<?xml version="1.0" encoding="UTF-8" standalone="no"?>
<!-- Generator: Adobe Illustrator 16.0.0, SVG Export Plug-In . SVG Version: 6.00 Build 0)  -->

<svg
   xmlns:dc="http://purl.org/dc/elements/1.1/"
   xmlns:cc="http://creativecommons.org/ns#"
   xmlns:rdf="http://www.w3.org/1999/02/22-rdf-syntax-ns#"
   xmlns:svg="http://www.w3.org/2000/svg"
   xmlns="http://www.w3.org/2000/svg"
   xmlns:sodipodi="http://sodipodi.sourceforge.net/DTD/sodipodi-0.dtd"
   xmlns:inkscape="http://www.inkscape.org/namespaces/inkscape"
   version="1.1"
   id="Capa_1"
   x="0px"
   y="0px"
   width="311.599px"
   height="311.599px"
   viewBox="0 0 311.599 311.599"
   style="enable-background:new 0 0 311.599 311.599;"
   xml:space="preserve"
   sodipodi:docname="delete.svg"
   inkscape:version="0.92.4 (unknown)"><metadata
   id="metadata128"><rdf:RDF><cc:Work
       rdf:about=""><dc:format>image/svg+xml</dc:format><dc:type
         rdf:resource="http://purl.org/dc/dcmitype/StillImage" /></cc:Work></rdf:RDF></metadata><defs
   id="defs126" /><sodipodi:namedview
   pagecolor="#ffffff"
   bordercolor="#666666"
   borderopacity="1"
   objecttolerance="10"
   gridtolerance="10"
   guidetolerance="10"
   inkscape:pageopacity="0"
   inkscape:pageshadow="2"
   inkscape:window-width="1366"
   inkscape:window-height="704"
   id="namedview124"
   showgrid="false"
   inkscape:zoom="0.74545996"
   inkscape:cx="-150.50544"
   inkscape:cy="38.239849"
   inkscape:window-x="0"
   inkscape:window-y="27"
   inkscape:window-maximized="1"
   inkscape:current-layer="Capa_1" />
<g
   id="g91"
   style="fill:#ff0000">
	<path
   d="M281.305,232.004c-21.42-25.092-48.96-44.063-70.992-68.544c-2.448-2.447-4.284-4.896-6.732-7.344   c20.809-24.479,42.841-48.959,64.261-73.439c11.628-12.852,25.704-44.064,3.06-55.692c-23.868-12.24-46.512,4.284-64.872,18.972   c-18.972,15.3-36.72,32.436-52.632,50.184c-17.748-20.808-36.108-41.004-56.304-59.976C82.404,22.701,43.236-14.631,21.205,6.177   c-21.42,18.972-4.284,49.572,12.24,65.484c1.836,1.836,4.284,2.448,6.732,1.836c26.928,21.42,49.572,46.512,71.604,72.828   c-28.152,36.719-53.856,75.276-82.008,110.772c-1.224,1.224-1.224,2.447-1.224,4.283c-11.628,8.568-17.748,28.152-7.344,39.168   c19.584,20.809,44.676,8.568,63.648-6.731c29.988-23.256,54.468-56.304,78.336-87.517c18.36,20.196,37.332,39.168,59.364,55.692   c17.748,13.464,45.899,33.66,68.544,20.196C312.517,269.948,291.708,243.632,281.305,232.004z M117.289,89.409   c0-1.224-0.612-2.448-1.224-3.06c-2.448-3.06-5.508-6.732-7.956-10.404v-0.612c4.896,6.12,9.792,12.852,14.688,18.972   C120.96,93.081,119.125,91.245,117.289,89.409z M180.324,93.081c-1.836,1.836-3.06,4.284-4.896,6.12   c-1.836,1.224-4.284,3.06-6.12,4.284c3.672-3.672,7.344-7.956,11.016-11.628C180.324,92.469,180.324,92.469,180.324,93.081z"
   id="path89"
   style="fill:#ff0000" />
</g>
<g
   id="g93">
</g>
<g
   id="g95">
</g>
<g
   id="g97">
</g>
<g
   id="g99">
</g>
<g
   id="g101">
</g>
<g
   id="g103">
</g>
<g
   id="g105">
</g>
<g
   id="g107">
</g>
<g
   id="g109">
</g>
<g
   id="g111">
</g>
<g
   id="g113">
</g>
<g
   id="g115">
</g>
<g
   id="g117">
</g>
<g
   id="g119">
</g>
<g
   id="g121">
</g>
</svg>