<?xml version="1.0" encoding="UTF-8" standalone="no"?>
<!-- Generator: Adobe Illustrator 19.0.0, SVG Export Plug-In . SVG Version: 6.00 Build 0)  -->

<svg
   xmlns:dc="http://purl.org/dc/elements/1.1/"
   xmlns:cc="http://creativecommons.org/ns#"
   xmlns:rdf="http://www.w3.org/1999/02/22-rdf-syntax-ns#"
   xmlns:svg="http://www.w3.org/2000/svg"
   xmlns="http://www.w3.org/2000/svg"
   xmlns:sodipodi="http://sodipodi.sourceforge.net/DTD/sodipodi-0.dtd"
   xmlns:inkscape="http://www.inkscape.org/namespaces/inkscape"
   version="1.1"
   id="Capa_1"
   x="0px"
   y="0px"
   viewBox="0 0 460.8 460.8"
   style="enable-background:new 0 0 460.8 460.8;"
   xml:space="preserve"
   sodipodi:docname="file.svg"
   inkscape:version="0.92.4 (unknown)"><metadata
   id="metadata55"><rdf:RDF><cc:Work
       rdf:about=""><dc:format>image/svg+xml</dc:format><dc:type
         rdf:resource="http://purl.org/dc/dcmitype/StillImage" /></cc:Work></rdf:RDF></metadata><defs
   id="defs53" /><sodipodi:namedview
   pagecolor="#ffffff"
   bordercolor="#666666"
   borderopacity="1"
   objecttolerance="10"
   gridtolerance="10"
   guidetolerance="10"
   inkscape:pageopacity="0"
   inkscape:pageshadow="2"
   inkscape:window-width="1366"
   inkscape:window-height="704"
   id="namedview51"
   showgrid="false"
   inkscape:zoom="0.51215279"
   inkscape:cx="-165.9661"
   inkscape:cy="230.39999"
   inkscape:window-x="0"
   inkscape:window-y="27"
   inkscape:window-maximized="1"
   inkscape:current-layer="Capa_1" />
<g
   id="g6"
   style="fill:#ff2a2a;fill-opacity:1">
	<g
   id="g4"
   style="fill:#ff2a2a;fill-opacity:1">
		<path
   d="M291.584,10.24V51.2c0,22.528,18.432,40.96,40.96,40.96h40.96L291.584,10.24z"
   id="path2"
   style="fill:#ff2a2a;fill-opacity:1" />
	</g>
</g>
<g
   id="g12"
   style="fill:#ff2a2a;fill-opacity:1">
	<g
   id="g10"
   style="fill:#ff2a2a;fill-opacity:1">
		<path
   d="M332.544,112.64c-33.792,0-61.44-27.648-61.44-61.44V0h-143.36c-28.16,0-51.2,23.04-51.2,51.2v358.4    c0,28.16,23.04,51.2,51.2,51.2h51.712c27.648,0,50.688-22.528,50.688-50.688v-51.2c0-28.672,23.04-51.712,51.712-51.712h51.712    c27.648,0,50.688-22.528,50.688-50.688V112.64H332.544z M127.744,40.96h102.4c5.632,0,10.24,4.608,10.24,10.24    s-4.608,10.24-10.24,10.24h-102.4c-5.632,0-10.24-4.608-10.24-10.24S122.112,40.96,127.744,40.96z M332.544,266.24h-204.8    c-5.632,0-10.24-4.608-10.24-10.24c0-5.632,4.608-10.24,10.24-10.24h204.8c5.632,0,10.24,4.608,10.24,10.24    C342.784,261.632,338.176,266.24,332.544,266.24z M332.544,215.04h-204.8c-5.632,0-10.24-4.608-10.24-10.24    c0-5.632,4.608-10.24,10.24-10.24h204.8c5.632,0,10.24,4.608,10.24,10.24C342.784,210.432,338.176,215.04,332.544,215.04z     M332.544,163.84h-204.8c-5.632,0-10.24-4.608-10.24-10.24c0-5.632,4.608-10.24,10.24-10.24h204.8    c5.632,0,10.24,4.608,10.24,10.24C342.784,159.232,338.176,163.84,332.544,163.84z"
   id="path8"
   style="fill:#ff2a2a;fill-opacity:1" />
	</g>
</g>
<g
   id="g18"
   style="fill:#ff6600">
	<g
   id="g16"
   style="fill:#ff6600">
		<path
   d="M376.064,376.832c-4.096-4.096-10.24-4.096-14.336,0l-29.184,28.672L303.36,376.32c-4.096-4.096-10.24-4.096-14.336,0    s-4.096,10.24,0,14.336l36.352,36.352c2.048,2.048,4.608,3.072,7.168,3.072s5.12-1.024,7.168-3.072l36.352-36.352    C380.16,387.072,380.16,380.928,376.064,376.832z"
   id="path14"
   style="fill:#ff6600" />
	</g>
</g>
<g
   id="g20">
</g>
<g
   id="g22">
</g>
<g
   id="g24">
</g>
<g
   id="g26">
</g>
<g
   id="g28">
</g>
<g
   id="g30">
</g>
<g
   id="g32">
</g>
<g
   id="g34">
</g>
<g
   id="g36">
</g>
<g
   id="g38">
</g>
<g
   id="g40">
</g>
<g
   id="g42">
</g>
<g
   id="g44">
</g>
<g
   id="g46">
</g>
<g
   id="g48">
</g>
</svg>