<?xml version="1.0" encoding="UTF-8" standalone="no"?>
<svg
   enable-background="new 0 0 64 64"
   height="512"
   viewBox="0 0 64 64"
   width="512"
   version="1.1"
   id="svg72"
   sodipodi:docname="man.svg"
   inkscape:version="1.2.2 (b0a8486541, 2022-12-01)"
   xmlns:inkscape="http://www.inkscape.org/namespaces/inkscape"
   xmlns:sodipodi="http://sodipodi.sourceforge.net/DTD/sodipodi-0.dtd"
   xmlns="http://www.w3.org/2000/svg"
   xmlns:svg="http://www.w3.org/2000/svg">
  <defs
     id="defs76" />
  <sodipodi:namedview
     id="namedview74"
     pagecolor="#505050"
     bordercolor="#eeeeee"
     borderopacity="1"
     inkscape:showpageshadow="0"
     inkscape:pageopacity="0"
     inkscape:pagecheckerboard="0"
     inkscape:deskcolor="#505050"
     showgrid="false"
     inkscape:zoom="0.7278228"
     inkscape:cx="81.063687"
     inkscape:cy="258.30463"
     inkscape:window-width="1366"
     inkscape:window-height="699"
     inkscape:window-x="0"
     inkscape:window-y="32"
     inkscape:window-maximized="1"
     inkscape:current-layer="svg72" />
  <path
     d="m39.026 30.733c2.974-1.733 4.474-5.233 4.474-5.233l1-11s3-3-1-6-8.962-.607-13.481-3.803v9.803z"
     fill="#746da3"
     id="path2"
     style="fill:#f88408;fill-opacity:1" />
  <path
     d="m43.5 37.5s5 2 9 5 4 7 4 12 0 8 0 8h-43s0-4 0-8 0-10 4-12 6-3 6-3z"
     fill="#a99be0"
     id="path4"
     style="fill:#f88408;fill-opacity:1" />
  <path
     d="m13.5 62.5h43s0-.708 0-2h-43z"
     fill="#968cd2"
     id="path6" />
  <path
     d="m52.5 42.5c-4-3-9-5-9-5l-20 2s-2 1-6 3-4 8-4 12v2c0-4 0-10 4-12s7-4 7-4l18-1s6 2 10 5 4 7 4 12c0-.626 0-1.29 0-2 0-5 0-9-4-12z"
     fill="#b4aaf0"
     id="path8" />
  <path
     d="m46.5 63c-.276 0-.5-.224-.5-.5v-12c0-.276.224-.5.5-.5s.5.224.5.5v12c0 .276-.224.5-.5.5z"
     fill="#968cd2"
     id="path10" />
  <path
     d="m17.5 63c-.276 0-.5-.224-.5-.5v-12c0-.276.224-.5.5-.5s.5.224.5.5v12c0 .276-.224.5-.5.5z"
     fill="#968cd2"
     id="path12" />
  <path
     d="m38.5 33.912v-1.172l-9.055 3.76v-.695l-5.945 3.695 1.532 6.892c.185.832 1.258 1.066 1.773.387l2.64-3.482v.203h.055 3l5.929 4.235c.538.385 1.295.15 1.521-.472l3.55-9.763z"
     fill="#968cd2"
     id="path14" />
  <path
     d="m29.445 34.5v7h.055 9v-10.76z"
     fill="#ffb4be"
     id="path16" />
  <path
     d="m21.5 12.5v16c0 3.314 2.686 6 6 6h5c3.866 0 7-3.134 7-7v-1h2c1.657 0 3-1.343 3-3v-2c0-1.657-1.343-3-3-3h-2l-4-4z"
     fill="#ffc8d2"
     id="path18" />
  <g
     fill="#785ae6"
     id="g32">
    <path
       d="m23.5 25c-.276 0-.5-.224-.5-.5v-3c0-.276.224-.5.5-.5s.5.224.5.5v3c0 .276-.224.5-.5.5z"
       id="path20" />
    <path
       d="m33.5 21c-.128 0-.256-.049-.354-.146-2.588-2.586-4.228-1.062-4.296-.997-.198.191-.514.188-.706-.008s-.192-.508.001-.702c.023-.024 2.391-2.316 5.707 1 .195.195.195.512 0 .707-.096.097-.224.146-.352.146z"
       id="path22" />
    <path
       d="m24.5 20c-.127 0-.255-.048-.353-.145-.116-.114-1.127-1.033-2.342-.082-.22.17-.533.131-.702-.086-.17-.218-.131-.532.086-.702 1.555-1.216 3.077-.426 3.664.162.195.195.195.512 0 .707-.097.097-.225.146-.353.146z"
       id="path24" />
    <path
       d="m30.5 31h-5c-.276 0-.5-.224-.5-.5s.224-.5.5-.5h5c.403 0 .494-.275.5-.506.007-.273.19-.495.506-.491.274.004.494.224.494.497 0 .603-.399 1.5-1.5 1.5z"
       id="path26" />
    <path
       d="m25.5 28c-1.153 0-2.5-.393-2.5-1.5 0-1.064 1.71-4.538 2.053-5.224.124-.247.423-.346.671-.224.247.124.347.424.224.671-.809 1.618-1.948 4.169-1.948 4.777 0 .301.903.5 1.5.5.276 0 .5.224.5.5s-.224.5-.5.5z"
       id="path28" />
    <path
       d="m30.5 25c-.276 0-.5-.224-.5-.5v-3c0-.276.224-.5.5-.5s.5.224.5.5v3c0 .276-.224.5-.5.5z"
       id="path30" />
  </g>
  <path
     d="m32.5 41.5 6.003 4.288c.515.368 1.238.171 1.495-.408l3.502-7.88-5-3.588z"
     fill="#f0f0e6"
     id="path34" />
  <path
     d="m29.445 41.297v-5.491l-5.945 3.694 1.45 5.076c.226.792 1.261.986 1.758.329z"
     fill="#f0f0e6"
     id="path36" />
  <path
     d="m42.812 39.049.688-1.549-5-3.588-1.203 1.522z"
     fill="#fffffa"
     id="path38" />
  <path
     d="m23.5 39.5.485 1.698 5.46-3.393v-2z"
     fill="#fffffa"
     id="path40" />
  <path
     d="m56.5 63h-43c-.276 0-.5-.224-.5-.5v-8c0-4.105 0-10.309 4.276-12.447l6-3 5.668-3.525v-1.028c0-.276.224-.5.5-.5s.5.224.5.5v1.305c0 .173-.089.333-.236.425l-5.944 3.695-6.041 3.022c-3.723 1.862-3.723 7.694-3.723 11.553v7.5h42v-7.5c0-4.889 0-8.75-3.8-11.6-3.898-2.924-8.836-4.916-8.886-4.936-.038-.015-.073-.035-.106-.058l-5-3.588c-.13-.094-.208-.245-.208-.406v-3.172c0-.276.224-.5.5-.5s.5.224.5.5v2.915l4.743 3.404c.595.242 5.233 2.173 9.057 5.041 4.2 3.15 4.2 7.437 4.2 12.4v8c0 .276-.224.5-.5.5z"
     fill="#785ae6"
     id="path42"
     style="fill:#f88408;fill-opacity:1" />
  <path
     d="m31.5 54.5h-1c-.552 0-1-.448-1-1v-12h3v12c0 .552-.448 1-1 1z"
     fill="#f0f0e6"
     id="path44" />
  <path
     d="m29.5 42c-.276 0-.5-.224-.5-.5v-7c0-.276.224-.5.5-.5s.5.224.5.5v7c0 .276-.224.5-.5.5z"
     fill="#785ae6"
     id="path46" />
  <path
     d="m38.502 31.603c-.088 0-.177-.023-.257-.072-.236-.142-.313-.449-.17-.686.605-1.007.925-2.163.925-3.345v-1c0-.276.224-.5.5-.5h2c1.378 0 2.5-1.122 2.5-2.5v-2c0-1.378-1.122-2.5-2.5-2.5h-1c-.276 0-.5-.224-.5-.5s.224-.5.5-.5h1c1.93 0 3.5 1.57 3.5 3.5v2c0 1.93-1.57 3.5-3.5 3.5h-1.5v.5c0 1.363-.37 2.698-1.069 3.86-.094.156-.259.243-.429.243z"
     fill="#785ae6"
     id="path48" />
  <path
     d="m45.414 12.929c.364-1.15.274-2.788-1.914-4.429-4-3-8.962-.607-13.481-3.804v2c4.519 3.197 9.481.804 13.481 3.804 1.109.832 1.668 1.661 1.914 2.429z"
     fill="#8278b4"
     id="path50" />
  <path
     d="m22.788 14.5s-1.957 0-2.935-4 1.957-7 2.935-8 1.957 1 2.935 2c0 0 0-2 .978-2s2.935 2 5.871 4 3.914 5 2.935 8z"
     fill="#746da3"
     id="path52"
     style="fill:#f88408;fill-opacity:1" />
  <path
     d="m22.788 4.5c.978-1 1.957 1 2.935 2 0 0 0-2 .978-2s2.935 3.378 6.454 3.864c.667.092 1.393.128 2.009.144-.543-.849-1.617-1.343-2.593-2.008-2.935-2-4.892-4-5.871-4-.978 0-.978 2-.978 2-.978-1-1.957-3-2.935-2-.928.948-3.608 3.696-3.051 7.388.404-2.672 2.301-4.62 3.052-5.388z"
     fill="#8278b4"
     id="path54" />
  <path
     d="m25.5 15c-.095 0-.191-.027-.277-.084-3.186-2.124-3.223-5.283-3.223-5.416 0-.275.223-.498.498-.499h.002c.274 0 .498.223.5.497.001.112.051 2.769 2.777 4.586.23.153.292.463.139.693-.096.145-.255.223-.416.223z"
     fill="#8278b4"
     id="path56" />
  <path
     d="m30.616 15c-.13 0-.259-.05-.357-.15-1.99-2.034-2.985-4.045-3.027-4.13-.121-.248-.019-.547.229-.668.249-.122.547-.019.669.229.01.02.972 1.958 2.844 3.871.193.197.189.514-.008.707-.098.094-.224.141-.35.141z"
     fill="#8278b4"
     id="path58" />
  <path
     d="m35.5 14.5c2 2 2 7 3 8s2-1 2-5v-3z"
     fill="#746da3"
     id="path60"
     style="fill:#f88408;fill-opacity:1" />
  <g
     fill="#785ae6"
     id="g70"
     style="fill:#f88408;fill-opacity:1">
    <path
       d="m22.5 15c-.098 0-2.403-.05-3.485-4.379-1.069-4.274 2.092-7.436 3.131-8.475.297-.297.64-.437.992-.417.77.042 1.368.791 2.002 1.583.002.003.004.006.007.009.201-.732.621-1.321 1.353-1.321.787 0 1.788.765 3.304 1.922.294.225.605.462.934.709.221.166.266.479.1.7-.166.222-.478.266-.7.1-.332-.248-.645-.488-.941-.714-1.156-.883-2.248-1.717-2.697-1.717-.301 0-.5.903-.5 1.5 0 .202-.122.385-.309.462-.186.078-.401.035-.545-.108-.27-.27-.533-.598-.787-.916-.402-.503-.953-1.192-1.276-1.21-.025.001-.098-.005-.229.126-.94.94-3.8 3.8-2.869 7.525.876 3.502 2.51 3.621 2.526 3.621.271.013.489.24.482.512s-.222.488-.493.488z"
       id="path62"
       style="fill:#f88408;fill-opacity:1" />
    <path
       d="m32.5 35h-5c-3.584 0-6.5-2.916-6.5-6.5v-11c0-2.182 1.1-3.307 1.146-3.354.195-.195.512-.195.707 0s.195.512 0 .707c-.032.034-.853.901-.853 2.647v11c0 3.033 2.467 5.5 5.5 5.5h5c.276 0 .5.224.5.5s-.224.5-.5.5z"
       id="path64"
       style="fill:#f88408;fill-opacity:1" />
    <path
       d="m44.013 20.362c-.015 0-.03 0-.046-.002-.275-.025-.478-.268-.453-.543l.487-5.362c.011-.115.062-.225.143-.307.011-.01 1.03-1.062.928-2.438-.074-.988-.704-1.933-1.873-2.81-1.855-1.391-3.959-1.552-6.186-1.722-2.399-.183-4.879-.373-7.284-2.073-.226-.16-.279-.472-.12-.697s.472-.279.697-.12c2.179 1.541 4.52 1.72 6.783 1.893 2.273.173 4.623.353 6.711 1.919 1.415 1.061 2.179 2.255 2.271 3.548.107 1.513-.752 2.672-1.088 3.063l-.472 5.195c-.024.261-.242.456-.498.456z"
       id="path66"
       style="fill:#f88408;fill-opacity:1" />
    <path
       d="m39.026 31.233c-.172 0-.339-.089-.433-.248-.139-.239-.058-.545.18-.684 2.245-1.308 3.612-3.682 4.096-4.641.124-.247.424-.347.671-.221.247.124.346.425.221.671-.523 1.039-2.009 3.612-4.485 5.055-.077.046-.164.068-.25.068z"
       id="path68"
       style="fill:#f88408;fill-opacity:1" />
  </g>
</svg>
