<?xml version="1.0" encoding="UTF-8" standalone="no"?>
<!-- Generator: Adobe Illustrator 19.0.0, SVG Export Plug-In . SVG Version: 6.00 Build 0)  -->

<svg
   version="1.1"
   id="Capa_1"
   x="0px"
   y="0px"
   viewBox="0 0 402.773 402.773"
   style="enable-background:new 0 0 402.773 402.773;"
   xml:space="preserve"
   sodipodi:docname="orders.svg"
   inkscape:version="1.2.2 (b0a8486541, 2022-12-01)"
   xmlns:inkscape="http://www.inkscape.org/namespaces/inkscape"
   xmlns:sodipodi="http://sodipodi.sourceforge.net/DTD/sodipodi-0.dtd"
   xmlns="http://www.w3.org/2000/svg"
   xmlns:svg="http://www.w3.org/2000/svg"><defs
   id="defs59" /><sodipodi:namedview
   id="namedview57"
   pagecolor="#505050"
   bordercolor="#eeeeee"
   borderopacity="1"
   inkscape:showpageshadow="0"
   inkscape:pageopacity="0"
   inkscape:pagecheckerboard="0"
   inkscape:deskcolor="#505050"
   showgrid="false"
   inkscape:zoom="1.3084293"
   inkscape:cx="178.07611"
   inkscape:cy="109.29135"
   inkscape:window-width="1366"
   inkscape:window-height="699"
   inkscape:window-x="0"
   inkscape:window-y="32"
   inkscape:window-maximized="1"
   inkscape:current-layer="Capa_1" />









<g
   id="g3832"><polygon
     style="fill:#f9b872;fill-opacity:1"
     points="351.573,129.707 51.2,129.707 71.68,95.573 331.093,95.573 "
     id="polygon2" /><path
     style="fill:#f88408;fill-opacity:1"
     d="m 348.18722,138.19436 h -300.373 c -2.459,0 -4.729,-1.319 -5.939,-3.459 -1.213,-2.147 -1.179,-4.774 0.087,-6.88 l 20.48,-34.133004 c 1.232,-2.055 3.456,-3.314 5.852,-3.314 h 259.413 c 2.396,0 4.62,1.26 5.854,3.313 l 20.48,34.133004 c 1.266,2.106 1.3,4.733 0.087,6.88 -1.212,2.141 -3.482,3.46 -5.941,3.46 z m -288.317,-13.653 h 276.26 l -12.29,-20.48 h -251.679 z"
     id="path4" /><polyline
     style="fill:#fdd0a0;fill-opacity:1"
     points="353.674,170.665 365.227,395.947 37.547,395.947 51.2,129.707 351.573,129.707 "
     id="polyline6" /><path
     style="fill:#f88408;fill-opacity:1"
     d="M 360.73291,402.23312 H 33.052918 c -1.871,0 -3.661,-0.766 -4.949,-2.127 -1.287,-1.353 -1.963,-3.18 -1.867,-5.047 l 13.653,-266.24 c 0.186,-3.633 3.183,-6.48 6.816,-6.48 H 347.07891 c 3.77,0 6.827,3.053 6.827,6.827 0,3.773 -3.057,6.827 -6.827,6.827 H 53.192918 l -12.954,252.587 H 353.54591 l -11.184,-218.107 c -0.193,-3.76 2.703,-6.973 6.467,-7.166 3.82,-0.119 6.977,2.707 7.166,6.473 l 11.554,225.28 c 0.097,1.867 -0.58,3.693 -1.867,5.047 -1.289,1.36 -3.079,2.126 -4.949,2.126 z"
     id="path8" /><rect
     x="95.573"
     y="136.533"
     style="fill:#f9b872;fill-opacity:1"
     width="109.227"
     height="252.587"
     id="rect10" /><circle
     style="fill:#FFFFFF;"
     cx="252.587"
     cy="170.667"
     r="13.653"
     id="circle12" /><path
     style="fill:#f88408;fill-opacity:1"
     d="M252.587,191.147c-11.293,0-20.48-9.187-20.48-20.48s9.187-20.48,20.48-20.48  c11.293,0,20.48,9.187,20.48,20.48S263.88,191.147,252.587,191.147z M252.587,163.84c-3.763,0-6.827,3.06-6.827,6.827  s3.063,6.827,6.827,6.827c3.763,0,6.827-3.06,6.827-6.827S256.35,163.84,252.587,163.84z"
     id="path14" /><circle
     style="fill:#FFFFFF;"
     cx="150.187"
     cy="170.667"
     r="13.653"
     id="circle16" /><g
     id="g22"
     transform="translate(-0.26283622,0.22846852)"
     style="fill:#f88408;fill-opacity:1">
	<path
   style="fill:#f88408;fill-opacity:1"
   d="m 150.187,191.147 c -11.293,0 -20.48,-9.187 -20.48,-20.48 0,-11.293 9.187,-20.48 20.48,-20.48 11.293,0 20.48,9.187 20.48,20.48 0,11.293 -9.187,20.48 -20.48,20.48 z m 0,-27.307 c -3.763,0 -6.827,3.06 -6.827,6.827 0,3.767 3.063,6.827 6.827,6.827 3.763,0 6.827,-3.06 6.827,-6.827 0,-3.767 -3.064,-6.827 -6.827,-6.827 z"
   id="path18" />
	<path
   style="fill:#f88408;fill-opacity:1"
   d="m 252.587,102.4 h -102.4 c -3.77,0 -6.827,-3.053 -6.827,-6.827 V 58.027 C 143.36,26.033 169.39,0 201.387,0 c 31.997,0 58.027,26.033 58.027,58.027 v 37.547 c -10e-4,3.773 -3.057,6.826 -6.827,6.826 z M 157.013,88.747 h 88.747 v -30.72 c 0,-24.467 -19.907,-44.373 -44.373,-44.373 -24.466,0 -44.373,19.907 -44.373,44.373 v 30.72 z"
   id="path20" />
</g><path
     style="fill:#f88408;fill-opacity:1"
     d="m 201.18161,275.12869 c -31.997,0 -58.027,-26.033 -58.027,-58.027 v -37.547 c 0,-3.773 3.057,-6.827 6.827,-6.827 3.77,0 6.827,3.053 6.827,6.827 v 37.547 c 0,24.467 19.907,44.373 44.373,44.373 24.466,0 44.373,-19.907 44.373,-44.373 v -35.734 c -0.171,-0.573 -0.263,-1.186 -0.263,-1.812 0,-3.773 2.794,-6.827 6.564,-6.827 h 0.526 c 3.77,0 6.827,3.053 6.827,6.827 v 37.547 c -0.001,31.992 -26.031,58.026 -58.027,58.026 z"
     id="path24" /></g>
<g
   id="g26">
</g>
<g
   id="g28">
</g>
<g
   id="g30">
</g>
<g
   id="g32">
</g>
<g
   id="g34">
</g>
<g
   id="g36">
</g>
<g
   id="g38">
</g>
<g
   id="g40">
</g>
<g
   id="g42">
</g>
<g
   id="g44">
</g>
<g
   id="g46">
</g>
<g
   id="g48">
</g>
<g
   id="g50">
</g>
<g
   id="g52">
</g>
<g
   id="g54">
</g>
</svg>
