<?xml version="1.0" encoding="UTF-8" standalone="no"?>
<!-- Generator: Adobe Illustrator 19.0.0, SVG Export Plug-In . SVG Version: 6.00 Build 0)  -->

<svg
   version="1.1"
   id="Layer_1"
   x="0px"
   y="0px"
   viewBox="0 0 512 512"
   style="enable-background:new 0 0 512 512;"
   xml:space="preserve"
   sodipodi:docname="slider.svg"
   inkscape:version="1.2.2 (b0a8486541, 2022-12-01)"
   xmlns:inkscape="http://www.inkscape.org/namespaces/inkscape"
   xmlns:sodipodi="http://sodipodi.sourceforge.net/DTD/sodipodi-0.dtd"
   xmlns="http://www.w3.org/2000/svg"
   xmlns:svg="http://www.w3.org/2000/svg"
   xmlns:rdf="http://www.w3.org/1999/02/22-rdf-syntax-ns#"
   xmlns:cc="http://creativecommons.org/ns#"
   xmlns:dc="http://purl.org/dc/elements/1.1/"><metadata
   id="metadata63"><rdf:RDF><cc:Work
       rdf:about=""><dc:format>image/svg+xml</dc:format><dc:type
         rdf:resource="http://purl.org/dc/dcmitype/StillImage" /></cc:Work></rdf:RDF></metadata><defs
   id="defs61" /><sodipodi:namedview
   pagecolor="#ffffff"
   bordercolor="#666666"
   borderopacity="1"
   objecttolerance="10"
   gridtolerance="10"
   guidetolerance="10"
   inkscape:pageopacity="0"
   inkscape:pageshadow="2"
   inkscape:window-width="1366"
   inkscape:window-height="699"
   id="namedview59"
   showgrid="false"
   inkscape:zoom="0.921875"
   inkscape:cx="228.88136"
   inkscape:cy="247.32203"
   inkscape:window-x="0"
   inkscape:window-y="32"
   inkscape:window-maximized="1"
   inkscape:current-layer="Layer_1"
   inkscape:showpageshadow="0"
   inkscape:pagecheckerboard="0"
   inkscape:deskcolor="#d1d1d1" />
<rect
   x="164.571"
   y="146.286"
   style="fill:#f9b872;fill-opacity:1"
   width="237.714"
   height="164.571"
   id="rect2" />
<path
   style="fill:#f9b872;fill-opacity:1"
   d="M457.143,329.143c-5.053,0-9.143-4.089-9.143-9.143V137.143c0-5.053,4.089-9.143,9.143-9.143h36.571  V82.286H18.286V128h91.429c5.053,0,9.143,4.089,9.143,9.143V320c0,5.053-4.089,9.143-9.143,9.143H18.286v100.571h475.429V329.143  H457.143z M182.857,393.143h-27.429v-18.286h27.429V393.143z M228.571,393.143h-27.429v-18.286h27.429V393.143z M265.143,402.286  c-10.08,0-18.286-8.205-18.286-18.286c0-10.08,8.205-18.286,18.286-18.286c10.08,0,18.286,8.205,18.286,18.286  C283.429,394.08,275.223,402.286,265.143,402.286z M329.143,393.143h-27.429v-18.286h27.429V393.143z M374.857,393.143h-27.429  v-18.286h27.429V393.143z M420.571,320c0,5.053-4.089,9.143-9.143,9.143h-256c-5.053,0-9.143-4.089-9.143-9.143V137.143  c0-5.053,4.089-9.143,9.143-9.143h256c5.053,0,9.143,4.089,9.143,9.143V320z"
   id="path4" />
<g
   id="g10"
   style="fill:#ff2a2a">
	<rect
   x="18.286"
   y="146.286"
   style="fill:#f9b872;fill-opacity:1"
   width="82.286"
   height="164.571"
   id="rect6" />
	<rect
   x="466.286"
   y="146.286"
   style="fill:#f9b872;fill-opacity:1"
   width="27.429"
   height="164.571"
   id="rect8" />
</g>
<g
   id="g26">
	<path
   style="fill:#314E55;"
   d="M502.857,64H9.143C4.089,64,0,68.089,0,73.143v64V320v118.857C0,443.911,4.089,448,9.143,448   h493.714c5.053,0,9.143-4.089,9.143-9.143V320V137.143v-64C512,68.089,507.911,64,502.857,64z M18.286,146.286h82.286v164.571   H18.286V146.286z M18.286,429.714V329.143h91.429c5.053,0,9.143-4.089,9.143-9.143V137.143c0-5.053-4.089-9.143-9.143-9.143H18.286   V82.286h475.429V128h-36.571c-5.053,0-9.143,4.089-9.143,9.143V320c0,5.053,4.089,9.143,9.143,9.143h36.571v100.571H18.286z    M493.714,310.857h-27.429V146.286h27.429V310.857z"
   id="path12" />
	<path
   style="fill:#314E55;"
   d="M265.143,365.714c-10.08,0-18.286,8.205-18.286,18.286c0,10.08,8.205,18.286,18.286,18.286   c10.08,0,18.286-8.205,18.286-18.286C283.429,373.92,275.223,365.714,265.143,365.714z"
   id="path14" />
	<path
   style="fill:#314E55;"
   d="M411.429,128h-256c-5.053,0-9.143,4.089-9.143,9.143V320c0,5.053,4.089,9.143,9.143,9.143h256   c5.053,0,9.143-4.089,9.143-9.143V137.143C420.571,132.089,416.482,128,411.429,128z M402.286,310.857H164.571V146.286h237.714   V310.857z"
   id="path16" />
	<rect
   x="155.429"
   y="374.857"
   style="fill:#314E55;"
   width="27.429"
   height="18.286"
   id="rect18" />
	<rect
   x="201.143"
   y="374.857"
   style="fill:#314E55;"
   width="27.429"
   height="18.286"
   id="rect20" />
	<rect
   x="301.714"
   y="374.857"
   style="fill:#314E55;"
   width="27.429"
   height="18.286"
   id="rect22" />
	<rect
   x="347.429"
   y="374.857"
   style="fill:#314E55;"
   width="27.429"
   height="18.286"
   id="rect24" />
</g>
<g
   id="g28">
</g>
<g
   id="g30">
</g>
<g
   id="g32">
</g>
<g
   id="g34">
</g>
<g
   id="g36">
</g>
<g
   id="g38">
</g>
<g
   id="g40">
</g>
<g
   id="g42">
</g>
<g
   id="g44">
</g>
<g
   id="g46">
</g>
<g
   id="g48">
</g>
<g
   id="g50">
</g>
<g
   id="g52">
</g>
<g
   id="g54">
</g>
<g
   id="g56">
</g>
</svg>
